<svg width="56" height="56" viewBox="0 0 56 56" fill="none" xmlns="http://www.w3.org/2000/svg">
<rect x="0.5" y="0.5" width="55" height="55" rx="3.5" stroke="#C0C6D2"/>
<mask id="mask0_0_27978" style="mask-type:luminance" maskUnits="userSpaceOnUse" x="17" y="17" width="23" height="22">
<path fill-rule="evenodd" clip-rule="evenodd" d="M19.875 17.958V20.833H17V22.7497H19.875V25.6247H21.7917V22.7497H24.6667V20.833H21.7917V17.958H19.875ZM22.75 23.708V26.583H19.875V36.1663C19.875 37.2205 20.7375 38.083 21.7917 38.083H37.125C38.1792 38.083 39.0417 37.2205 39.0417 36.1663V24.6663C39.0417 23.6122 38.1792 22.7497 37.125 22.7497H34.0871L32.3333 20.833H25.625V23.708H22.75ZM29.4583 35.208C32.1033 35.208 34.25 33.0613 34.25 30.4163C34.25 27.7713 32.1033 25.6247 29.4583 25.6247C26.8133 25.6247 24.6667 27.7713 24.6667 30.4163C24.6667 33.0613 26.8133 35.208 29.4583 35.208ZM29.4583 33.483C27.7621 33.483 26.3917 32.1126 26.3917 30.4163C26.3917 28.7201 27.7621 27.3497 29.4583 27.3497C31.1546 27.3497 32.525 28.7201 32.525 30.4163C32.525 32.1126 31.1546 33.483 29.4583 33.483Z" fill="white"/>
</mask>
<g mask="url(#mask0_0_27978)">
<rect x="17" y="17" width="23" height="23" fill="#252A34"/>
</g>
</svg>
