<svg width="80" height="80" viewBox="0 0 80 80" fill="none" xmlns="http://www.w3.org/2000/svg">
<circle cx="40" cy="40" r="40" fill="#F1F4F6"/>
<path fill-rule="evenodd" clip-rule="evenodd" d="M25 34.2666C25 32.6163 26.3644 31.2518 28.0148 31.2518H52.0963C53.7467 31.2518 55.1037 32.6163 55.1037 34.2666V50.3185C55.1037 51.9689 53.7467 53.3333 52.0963 53.3333H28.0148C26.3644 53.3333 25 51.9689 25 50.3185V34.2666ZM52.0963 33.2592H28.0148C27.4416 33.2592 27.0074 33.6934 27.0074 34.2666V50.3185C27.0074 50.8918 27.4415 51.3259 28.0148 51.3259H52.0963C52.6696 51.3259 53.1037 50.8918 53.1037 50.3185V34.2666C53.1037 33.6934 52.6696 33.2592 52.0963 33.2592Z" fill="#252A34"/>
<path fill-rule="evenodd" clip-rule="evenodd" d="M33.0296 42.2889C33.0296 38.4214 36.1844 35.2667 40.0518 35.2667C43.9193 35.2667 47.0815 38.4214 47.0815 42.2889C47.0815 46.1564 43.9193 49.3185 40.0518 49.3185C36.1844 49.3185 33.0296 46.1564 33.0296 42.2889ZM45.074 42.2889C45.074 39.506 42.8347 37.2741 40.0518 37.2741C37.269 37.2741 35.037 39.506 35.037 42.2889C35.037 45.0717 37.269 47.3111 40.0518 47.3111C42.8347 47.3111 45.074 45.0717 45.074 42.2889Z" fill="#08D9D6"/>
<path d="M30.0222 27.237C29.4679 27.237 29.0185 27.6864 29.0185 28.2407C29.0185 28.7951 29.4679 29.2444 30.0222 29.2444H50.0889C50.6432 29.2444 51.0926 28.7951 51.0926 28.2407C51.0926 27.6864 50.6432 27.237 50.0889 27.237H30.0222Z" fill="#252A34"/>
<path d="M31.0242 36.2715C31.0242 36.5377 30.9185 36.7929 30.7303 36.9811C30.5421 37.1693 30.2869 37.275 30.0207 37.275C29.7546 37.275 29.4994 37.1693 29.3112 36.9811C29.123 36.7929 29.0173 36.5377 29.0173 36.2715C29.0173 35.7173 29.4666 35.2681 30.0207 35.2681C30.5749 35.2681 31.0242 35.7173 31.0242 36.2715Z" fill="#252A34"/>
</svg>
