<svg width="27" height="23" viewBox="0 0 27 23" fill="none" xmlns="http://www.w3.org/2000/svg">
<path fill-rule="evenodd" clip-rule="evenodd" d="M0.84375 6.76835C0.84375 5.37584 1.99498 4.22461 3.3875 4.22461H23.7062C25.0988 4.22461 26.2437 5.37584 26.2437 6.76835V20.3121C26.2437 21.7046 25.0987 22.8558 23.7062 22.8558H3.3875C1.995 22.8558 0.84375 21.7046 0.84375 20.3121V6.76835ZM23.7063 5.91834H3.3875C2.90381 5.91834 2.5375 6.28464 2.5375 6.76835V20.3121C2.5375 20.7958 2.90379 21.1621 3.3875 21.1621H23.7063C24.19 21.1621 24.5562 20.7958 24.5562 20.3121V6.76835C24.5562 6.28464 24.1899 5.91834 23.7063 5.91834Z" fill="#252A34"/>
<path fill-rule="evenodd" clip-rule="evenodd" d="M7.61874 13.5371C7.61874 10.2739 10.2806 7.61212 13.5437 7.61212C16.8069 7.61212 19.475 10.2739 19.475 13.5371C19.475 16.8003 16.8069 19.4684 13.5437 19.4684C10.2806 19.4684 7.61874 16.8003 7.61874 13.5371ZM17.7812 13.5371C17.7812 11.1891 15.8918 9.30588 13.5437 9.30588C11.1957 9.30588 9.31249 11.1891 9.31249 13.5371C9.31249 15.8851 11.1957 17.7746 13.5437 17.7746C15.8918 17.7746 17.7812 15.8851 17.7812 13.5371Z" fill="#252A34"/>
<path d="M5.08126 0.837104C4.61354 0.837104 4.23438 1.21627 4.23438 1.68398C4.23438 2.1517 4.61354 2.53086 5.08126 2.53086H22.0125C22.4802 2.53086 22.8594 2.1517 22.8594 1.68398C22.8594 1.21627 22.4802 0.837104 22.0125 0.837104H5.08126Z" fill="#252A34"/>
<path d="M5.92666 8.45997C5.92667 8.68452 5.83747 8.89988 5.67869 9.05867C5.51991 9.21745 5.30455 9.30666 5.08 9.30666C4.85544 9.30666 4.64009 9.21745 4.4813 9.05867C4.32252 8.89988 4.23332 8.68452 4.23333 8.45997C4.23334 7.99237 4.6124 7.61331 5.08 7.61331C5.54759 7.61331 5.92666 7.99237 5.92666 8.45997Z" fill="#252A34"/>
</svg>
