<svg width="34" height="32" viewBox="0 0 34 32" fill="none" xmlns="http://www.w3.org/2000/svg">
<path fill-rule="evenodd" clip-rule="evenodd" d="M0.0968628 9.94896C0.0968628 8.13869 1.59347 6.64209 3.40374 6.64209H29.8181C31.6284 6.64209 33.1169 8.13869 33.1169 9.94896V27.5558C33.1169 29.3661 31.6284 30.8627 29.8181 30.8627H3.40374C1.59349 30.8627 0.0968628 29.3661 0.0968628 27.5558V9.94896ZM29.8181 8.84394H3.40374C2.77495 8.84394 2.29874 9.32013 2.29874 9.94896V27.5558C2.29874 28.1846 2.77492 28.6608 3.40374 28.6608H29.8181C30.4469 28.6608 30.9231 28.1846 30.9231 27.5558V9.94896C30.9231 9.32013 30.4469 8.84394 29.8181 8.84394Z" fill="#6E7A8A"/>
<path fill-rule="evenodd" clip-rule="evenodd" d="M8.90436 18.7484C8.90436 14.5063 12.3647 11.0459 16.6069 11.0459C20.849 11.0459 24.3175 14.5063 24.3175 18.7484C24.3175 22.9905 20.849 26.459 16.6069 26.459C12.3647 26.459 8.90436 22.9905 8.90436 18.7484ZM22.1156 18.7484C22.1156 15.6959 19.6593 13.2478 16.6069 13.2478C13.5544 13.2478 11.1062 15.6959 11.1062 18.7484C11.1062 21.8008 13.5544 24.2571 16.6069 24.2571C19.6593 24.2571 22.1156 21.8008 22.1156 18.7484Z" fill="#6E7A8A"/>
<path d="M5.60564 2.23833C4.99761 2.23833 4.5047 2.73124 4.5047 3.33928C4.5047 3.94731 4.99761 4.44022 5.60564 4.44022H27.6163C28.2243 4.44022 28.7172 3.94731 28.7172 3.33928C28.7172 2.73124 28.2243 2.23833 27.6163 2.23833H5.60564Z" fill="#6E7A8A"/>
<path d="M6.70465 12.1479C6.70466 12.4398 6.5887 12.7197 6.38229 12.9262C6.17587 13.1326 5.89591 13.2485 5.60399 13.2485C5.31207 13.2485 5.0321 13.1326 4.82569 12.9262C4.61927 12.7197 4.50331 12.4398 4.50332 12.1479C4.50333 11.54 4.99611 11.0472 5.60399 11.0472C6.21186 11.0472 6.70465 11.54 6.70465 12.1479Z" fill="#6E7A8A"/>
</svg>
