<svg width="16" height="16" viewBox="0 0 16 16" fill="none" xmlns="http://www.w3.org/2000/svg">
<path d="M7.96526 0C3.57321 0 0 3.57321 0 7.96526C0 12.3573 3.57321 15.9305 7.96526 15.9305C12.3573 15.9305 15.9305 12.3573 15.9305 7.96526C15.9305 3.57321 12.3572 0 7.96526 0Z" fill="#FF2E63"/>
<path d="M11.0473 4.88356C10.7806 4.61686 10.3482 4.61686 10.0819 4.88356L7.96528 7.00049L5.84861 4.88356C5.58192 4.61686 5.14992 4.61686 4.88322 4.88356C4.61652 5.15025 4.61652 5.58225 4.88322 5.84895L6.99988 7.9658L4.88313 10.0827C4.61643 10.3494 4.61643 10.7814 4.88313 11.0481C5.01643 11.1814 5.19115 11.2482 5.36587 11.2482C5.54059 11.2482 5.71549 11.1815 5.84861 11.0481L7.96528 8.93128L10.0819 11.0481C10.2152 11.1814 10.39 11.2482 10.5647 11.2482C10.7394 11.2482 10.914 11.1815 11.0474 11.0481C11.3141 10.7814 11.3141 10.3494 11.0474 10.0827L8.93067 7.96589L11.0473 5.84904C11.314 5.58234 11.314 5.15025 11.0473 4.88356Z" fill="#FFEDF2"/>
</svg>
