<svg width="15" height="15" viewBox="0 0 15 15" fill="none" xmlns="http://www.w3.org/2000/svg">
    <path fill-rule="evenodd" clip-rule="evenodd"
        d="M2.20664 2.20713C3.61054 0.803318 5.5146 0.0146484 7.49999 0.0146484L7.5001 0.0147625C9.48489 0.0169868 11.3875 0.806369 12.7909 2.2097C14.1942 3.61302 14.9836 5.51574 14.9858 7.50048C14.9858 9.48584 14.1971 11.3899 12.7933 12.7938C11.3894 14.1976 9.48535 14.9863 7.49999 14.9863C5.51463 14.9863 3.61054 14.1976 2.20664 12.7938C0.802829 11.3899 0.0141602 9.48584 0.0141602 7.50048C0.0141602 5.51511 0.802829 3.61103 2.20664 2.20713ZM2.91244 12.0879C4.12926 13.3045 5.77938 13.988 7.49999 13.988L7.50004 13.988C9.2202 13.986 10.8691 13.3019 12.0853 12.0856C13.3016 10.8693 13.9857 9.22034 13.9877 7.5003C13.9877 5.77958 13.3042 4.12941 12.0875 2.91276C10.8707 1.6961 9.22071 1.01258 7.49999 1.01258C5.77926 1.01258 4.12909 1.6961 2.91244 2.91276C1.69579 4.12958 1.01226 5.77958 1.01226 7.5003C1.01226 9.22103 1.69579 10.8712 2.91244 12.0879Z"
        fill="black" />
    <path
        d="M7.99908 7.29348V3.50783C7.99908 3.32949 7.90395 3.16474 7.74955 3.07563C7.59516 2.98651 7.40489 2.98651 7.2505 3.07563C7.09611 3.16474 7.00098 3.32949 7.00098 3.50783V7.50023C7.00098 7.63256 7.05356 7.75956 7.14724 7.85301L9.14344 9.84921C9.2702 9.97163 9.4521 10.0182 9.6221 9.97163C9.79197 9.92496 9.92475 9.79218 9.97143 9.6223C10.018 9.45231 9.97143 9.2704 9.84901 9.14364L7.99908 7.29348Z"
        fill="black" />
</svg>