<svg width="10" height="10" viewBox="0 0 10 10" fill="none" xmlns="http://www.w3.org/2000/svg">
<path fill-rule="evenodd" clip-rule="evenodd" d="M0 5.00001C0 2.23857 2.23857 0 5 0C7.7614 0 10 2.23857 10 5.00001C10 7.76141 7.7614 10 5 10C2.23857 10 0 7.76141 0 5.00001ZM6.85355 4.35361C7.0488 4.15836 7.0488 3.84177 6.85355 3.64651C6.6583 3.45125 6.3417 3.45125 6.14645 3.64651L4.5 5.29296L3.85355 4.64651C3.65829 4.45126 3.34171 4.45126 3.14645 4.64651C2.95118 4.84176 2.95118 5.15836 3.14645 5.35361L4.14645 6.35361C4.3417 6.54886 4.6583 6.54886 4.85355 6.35361L6.85355 4.35361Z" fill="#FF2E63"/>
</svg>
