<svg width="15" height="14" viewBox="0 0 15 14" fill="none" xmlns="http://www.w3.org/2000/svg">
<path fill-rule="evenodd" clip-rule="evenodd" d="M13.373 2.21368H11.9629V1.88826C11.9629 1.57825 11.7975 1.29176 11.529 1.13673C11.2606 0.981768 10.9297 0.981768 10.6613 1.13673C10.3928 1.29178 10.2274 1.57827 10.2274 1.88826V2.21368H5.2377V1.88826C5.2377 1.57825 5.07228 1.29176 4.80381 1.13673C4.53535 0.981768 4.20451 0.981768 3.93604 1.13673C3.66758 1.29178 3.50216 1.57827 3.50216 1.88826V2.21368H2.09203C1.80438 2.21368 1.52848 2.32796 1.32498 2.53133C1.12159 2.73481 1.00732 3.01074 1.00732 3.29839V12.193C1.00732 12.4807 1.12161 12.7566 1.32498 12.9601C1.52846 13.1635 1.80438 13.2777 2.09203 13.2777H13.373C13.6607 13.2777 13.9366 13.1634 14.1401 12.9601C14.3435 12.7566 14.4577 12.4807 14.4577 12.193V3.29839C14.4577 3.01074 14.3435 2.73483 14.1401 2.53133C13.9366 2.32795 13.6607 2.21368 13.373 2.21368ZM10.6611 1.88826C10.6611 1.73321 10.7438 1.58997 10.8781 1.5125C11.0123 1.43502 11.1777 1.43502 11.312 1.5125C11.4462 1.58997 11.5289 1.73321 11.5289 1.88826V3.18992C11.5289 3.34497 11.4462 3.48821 11.312 3.56569C11.1777 3.64316 11.0123 3.64316 10.8781 3.56569C10.7438 3.48821 10.6611 3.34497 10.6611 3.18992V1.88826ZM4.15286 1.5125C4.01863 1.58997 3.93592 1.73321 3.93592 1.88826V3.18992C3.93592 3.34497 4.01863 3.48821 4.15286 3.56569C4.28709 3.64316 4.45251 3.64316 4.58675 3.56569C4.72098 3.48821 4.80369 3.34497 4.80369 3.18992V1.88826C4.80369 1.73321 4.72098 1.58997 4.58675 1.5125C4.45251 1.43502 4.2871 1.43502 4.15286 1.5125ZM2.09191 2.64756H3.50204V3.18992C3.50204 3.49993 3.66745 3.78642 3.93592 3.94145C4.20438 4.09641 4.53522 4.09641 4.80369 3.94145C5.07215 3.7864 5.23757 3.49991 5.23757 3.18992V2.64756H10.2272V3.18992C10.2272 3.49993 10.3927 3.78642 10.6611 3.94145C10.9296 4.09641 11.2604 4.09641 11.5289 3.94145C11.7974 3.7864 11.9628 3.49991 11.9628 3.18992V2.64756H13.3729C13.5455 2.64756 13.7111 2.71613 13.8331 2.83816C13.9551 2.96019 14.0237 3.12581 14.0237 3.29838V4.92544H1.44107V3.29838C1.44107 3.12579 1.50964 2.96017 1.63167 2.83816C1.7537 2.71615 1.91932 2.64756 2.09189 2.64756H2.09191ZM2.09191 12.8438H13.3729H13.3729C13.5455 12.8438 13.7111 12.7753 13.8331 12.6532C13.9552 12.5312 14.0237 12.3656 14.0237 12.193V5.35947H1.4411V12.193C1.4411 12.3656 1.50969 12.5312 1.6317 12.6532C1.7537 12.7753 1.91933 12.8438 2.09191 12.8438Z" fill="black"/>
<path d="M11.9629 2.21368H11.7129V2.46368H11.9629V2.21368ZM11.529 1.13673L11.654 0.920233L11.654 0.920207L11.529 1.13673ZM10.6613 1.13673L10.5363 0.920207L10.5362 0.920241L10.6613 1.13673ZM10.2274 2.21368V2.46368H10.4774V2.21368H10.2274ZM5.2377 2.21368H4.9877V2.46368H5.2377V2.21368ZM4.80381 1.13673L4.92883 0.920233L4.92879 0.920207L4.80381 1.13673ZM3.93604 1.13673L3.81107 0.920207L3.81101 0.920241L3.93604 1.13673ZM3.50216 2.21368V2.46368H3.75216V2.21368H3.50216ZM1.32498 2.53133L1.14826 2.3545L1.14816 2.3546L1.32498 2.53133ZM1.32498 12.9601L1.14814 13.1368L1.14824 13.1369L1.32498 12.9601ZM14.1401 12.9601L14.3168 13.1369L14.3169 13.1368L14.1401 12.9601ZM14.1401 2.53133L14.3169 2.35461L14.3168 2.35451L14.1401 2.53133ZM10.8781 1.5125L10.7531 1.29597L10.7531 1.29597L10.8781 1.5125ZM11.312 1.5125L11.4369 1.29598V1.29598L11.312 1.5125ZM10.8781 3.56569L10.7531 3.7822V3.78221L10.8781 3.56569ZM4.15286 1.5125L4.02789 1.29597L4.02789 1.29597L4.15286 1.5125ZM4.15286 3.56569L4.02788 3.78221L4.02788 3.78221L4.15286 3.56569ZM4.58675 1.5125L4.71172 1.29598V1.29598L4.58675 1.5125ZM3.50204 2.64756H3.75204V2.39756H3.50204V2.64756ZM3.93592 3.94145L3.8109 4.15795L3.81094 4.15797L3.93592 3.94145ZM4.80369 3.94145L4.92866 4.15797L4.92872 4.15794L4.80369 3.94145ZM5.23757 2.64756V2.39756H4.98757V2.64756H5.23757ZM10.2272 2.64756H10.4772V2.39756H10.2272V2.64756ZM10.6611 3.94145L10.5361 4.15795L10.5361 4.15797L10.6611 3.94145ZM11.5289 3.94145L11.6539 4.15797L11.6539 4.15794L11.5289 3.94145ZM11.9628 2.64756V2.39756H11.7128V2.64756H11.9628ZM13.8331 2.83816L13.6563 3.01492V3.01492L13.8331 2.83816ZM14.0237 4.92544V5.17544H14.2737V4.92544H14.0237ZM1.44107 4.92544H1.19107V5.17544H1.44107V4.92544ZM1.63167 2.83816L1.80843 3.01495H1.80843L1.63167 2.83816ZM13.8331 12.6532L14.0099 12.83L14.0099 12.83L13.8331 12.6532ZM14.0237 5.35947H14.2737V5.10947H14.0237V5.35947ZM1.4411 5.35947V5.10947H1.1911V5.35947H1.4411ZM11.9629 2.46368H13.373V1.96368H11.9629V2.46368ZM11.7129 1.88826V2.21368H12.2129V1.88826H11.7129ZM11.404 1.35322C11.5951 1.4636 11.7129 1.66757 11.7129 1.88826H12.2129C12.2129 1.48892 11.9998 1.11992 11.654 0.920233L11.404 1.35322ZM10.7862 1.35325C10.9774 1.24293 11.2129 1.24293 11.404 1.35325L11.654 0.920207C11.3082 0.720608 10.8821 0.720608 10.5363 0.920207L10.7862 1.35325ZM10.4774 1.88826C10.4774 1.66761 10.5951 1.46362 10.7863 1.35321L10.5362 0.920241C10.1904 1.11994 9.97737 1.48894 9.97737 1.88826H10.4774ZM10.4774 2.21368V1.88826H9.97737V2.21368H10.4774ZM5.2377 2.46368H10.2274V1.96368H5.2377V2.46368ZM4.9877 1.88826V2.21368H5.4877V1.88826H4.9877ZM4.67879 1.35322C4.86993 1.4636 4.9877 1.66757 4.9877 1.88826H5.4877C5.4877 1.48892 5.27462 1.11992 4.92883 0.920233L4.67879 1.35322ZM4.06102 1.35325C4.25214 1.24293 4.48771 1.24293 4.67884 1.35325L4.92879 0.920207C4.58299 0.720608 4.15687 0.720608 3.81107 0.920207L4.06102 1.35325ZM3.75216 1.88826C3.75216 1.66761 3.86992 1.46362 4.06108 1.35321L3.81101 0.920241C3.46524 1.11994 3.25216 1.48894 3.25216 1.88826H3.75216ZM3.75216 2.21368V1.88826H3.25216V2.21368H3.75216ZM2.09203 2.46368H3.50216V1.96368H2.09203V2.46368ZM1.5017 2.70816C1.65835 2.55162 1.8707 2.46368 2.09203 2.46368V1.96368C1.73807 1.96368 1.39862 2.1043 1.14826 2.3545L1.5017 2.70816ZM1.25732 3.29839C1.25732 3.07703 1.34526 2.86467 1.5018 2.70806L1.14816 2.3546C0.897928 2.60494 0.757324 2.94444 0.757324 3.29839H1.25732ZM1.25732 12.193V3.29839H0.757324V12.193H1.25732ZM1.50181 12.7834C1.34526 12.6267 1.25732 12.4144 1.25732 12.193H0.757324C0.757324 12.547 0.897951 12.8864 1.14814 13.1368L1.50181 12.7834ZM2.09203 13.0277C1.87068 13.0277 1.65832 12.9398 1.50171 12.7833L1.14824 13.1369C1.39859 13.3871 1.73808 13.5277 2.09203 13.5277V13.0277ZM13.373 13.0277H2.09203V13.5277H13.373V13.0277ZM13.9634 12.7832C13.8067 12.9398 13.5944 13.0277 13.373 13.0277V13.5277C13.727 13.5277 14.0664 13.3871 14.3168 13.1369L13.9634 12.7832ZM14.2077 12.193C14.2077 12.4144 14.1198 12.6267 13.9633 12.7833L14.3169 13.1368C14.5671 12.8865 14.7077 12.547 14.7077 12.193H14.2077ZM14.2077 3.29839V12.193H14.7077V3.29839H14.2077ZM13.9632 2.70805C14.1198 2.8647 14.2077 3.07705 14.2077 3.29839H14.7077C14.7077 2.94442 14.5671 2.60497 14.3169 2.35461L13.9632 2.70805ZM13.373 2.46368C13.5944 2.46368 13.8067 2.55161 13.9633 2.70815L14.3168 2.35451C14.0665 2.10428 13.727 1.96368 13.373 1.96368V2.46368ZM10.7531 1.29597C10.5415 1.41812 10.4111 1.6439 10.4111 1.88826H10.9111C10.9111 1.82252 10.9462 1.76183 11.003 1.72902L10.7531 1.29597ZM11.4369 1.29598C11.2254 1.17386 10.9647 1.17386 10.7531 1.29597L11.003 1.72902C11.0599 1.69618 11.1301 1.69618 11.187 1.72902L11.4369 1.29598ZM11.7789 1.88826C11.7789 1.64391 11.6485 1.41812 11.4369 1.29598L11.187 1.72902C11.2438 1.76183 11.2789 1.82252 11.2789 1.88826H11.7789ZM11.7789 3.18992V1.88826H11.2789V3.18992H11.7789ZM11.4369 3.78221C11.6485 3.66006 11.7789 3.43428 11.7789 3.18992H11.2789C11.2789 3.25567 11.2438 3.31635 11.187 3.34916L11.4369 3.78221ZM10.7531 3.78221C10.9647 3.90433 11.2254 3.90432 11.4369 3.78221L11.187 3.34916C11.1301 3.38201 11.0599 3.382 11.003 3.34917L10.7531 3.78221ZM10.4111 3.18992C10.4111 3.43428 10.5415 3.66006 10.7531 3.7822L11.003 3.34917C10.9462 3.31635 10.9111 3.25566 10.9111 3.18992H10.4111ZM10.4111 1.88826V3.18992H10.9111V1.88826H10.4111ZM4.18592 1.88826C4.18592 1.82252 4.22098 1.76183 4.27784 1.72902L4.02789 1.29597C3.81627 1.41812 3.68592 1.6439 3.68592 1.88826H4.18592ZM4.18592 3.18992V1.88826H3.68592V3.18992H4.18592ZM4.27784 3.34917C4.22099 3.31635 4.18592 3.25566 4.18592 3.18992H3.68592C3.68592 3.43427 3.81627 3.66006 4.02788 3.78221L4.27784 3.34917ZM4.46177 3.34916C4.40487 3.38201 4.33473 3.382 4.27784 3.34917L4.02788 3.78221C4.23946 3.90433 4.50015 3.90432 4.71172 3.78221L4.46177 3.34916ZM4.55369 3.18992C4.55369 3.25567 4.51862 3.31635 4.46177 3.34916L4.71172 3.78221C4.92334 3.66006 5.05369 3.43428 5.05369 3.18992H4.55369ZM4.55369 1.88826V3.18992H5.05369V1.88826H4.55369ZM4.46177 1.72902C4.51862 1.76183 4.55369 1.82252 4.55369 1.88826H5.05369C5.05369 1.64391 4.92333 1.41812 4.71172 1.29598L4.46177 1.72902ZM4.27784 1.72902C4.33473 1.69618 4.40488 1.69618 4.46177 1.72902L4.71172 1.29598C4.50015 1.17386 4.23946 1.17386 4.02789 1.29597L4.27784 1.72902ZM3.50204 2.39756H2.09191V2.89756H3.50204V2.39756ZM3.75204 3.18992V2.64756H3.25204V3.18992H3.75204ZM4.06094 3.72496C3.8698 3.61458 3.75204 3.41061 3.75204 3.18992H3.25204C3.25204 3.58926 3.46511 3.95826 3.8109 4.15795L4.06094 3.72496ZM4.67871 3.72493C4.48759 3.83525 4.25202 3.83525 4.0609 3.72493L3.81094 4.15797C4.15674 4.35757 4.58286 4.35757 4.92866 4.15797L4.67871 3.72493ZM4.98757 3.18992C4.98757 3.41058 4.86981 3.61456 4.67865 3.72497L4.92872 4.15794C5.27449 3.95824 5.48757 3.58924 5.48757 3.18992H4.98757ZM4.98757 2.64756V3.18992H5.48757V2.64756H4.98757ZM10.2272 2.39756H5.23757V2.89756H10.2272V2.39756ZM10.4772 3.18992V2.64756H9.97724V3.18992H10.4772ZM10.7861 3.72496C10.595 3.61458 10.4772 3.41061 10.4772 3.18992H9.97724C9.97724 3.58926 10.1903 3.95826 10.5361 4.15795L10.7861 3.72496ZM11.4039 3.72493C11.2128 3.83525 10.9772 3.83525 10.7861 3.72493L10.5361 4.15797C10.882 4.35757 11.3081 4.35757 11.6539 4.15797L11.4039 3.72493ZM11.7128 3.18992C11.7128 3.41057 11.595 3.61456 11.4039 3.72497L11.6539 4.15794C11.9997 3.95824 12.2128 3.58924 12.2128 3.18992H11.7128ZM11.7128 2.64756V3.18992H12.2128V2.64756H11.7128ZM13.3729 2.39756H11.9628V2.89756H13.3729V2.39756ZM14.0099 2.6614C13.841 2.49244 13.6118 2.39756 13.3729 2.39756V2.89756C13.4792 2.89756 13.5812 2.93982 13.6563 3.01492L14.0099 2.6614ZM14.2737 3.29838C14.2737 3.05952 14.1788 2.83032 14.0099 2.6614L13.6563 3.01492C13.7315 3.09007 13.7737 3.19211 13.7737 3.29838H14.2737ZM14.2737 4.92544V3.29838H13.7737V4.92544H14.2737ZM1.44107 5.17544H14.0237V4.67544H1.44107V5.17544ZM1.19107 3.29838V4.92544H1.69107V3.29838H1.19107ZM1.45491 2.66137C1.28595 2.83029 1.19107 3.05953 1.19107 3.29838H1.69107C1.69107 3.19206 1.73333 3.09004 1.80843 3.01495L1.45491 2.66137ZM2.09189 2.39756C1.85303 2.39756 1.62383 2.49248 1.45491 2.66137L1.80843 3.01495C1.88358 2.93982 1.98562 2.89756 2.09189 2.89756V2.39756ZM2.09191 2.39756H2.09189V2.89756H2.09191V2.39756ZM13.3729 12.5938H2.09191V13.0938H13.3729V12.5938ZM13.3729 12.5938H13.3729V13.0938H13.3729V12.5938ZM13.6564 12.4764C13.5812 12.5516 13.4792 12.5938 13.3729 12.5938V13.0938C13.6118 13.0938 13.841 12.9989 14.0099 12.83L13.6564 12.4764ZM13.7737 12.193C13.7737 12.2993 13.7315 12.4014 13.6564 12.4765L14.0099 12.83C14.1789 12.6611 14.2737 12.4319 14.2737 12.193H13.7737ZM13.7737 5.35947V12.193H14.2737V5.35947H13.7737ZM1.4411 5.60947H14.0237V5.10947H1.4411V5.60947ZM1.6911 12.193V5.35947H1.1911V12.193H1.6911ZM1.80849 12.4765C1.73336 12.4013 1.6911 12.2993 1.6911 12.193H1.1911C1.1911 12.4319 1.28602 12.6611 1.4549 12.83L1.80849 12.4765ZM2.09191 12.5938C1.98559 12.5938 1.88358 12.5516 1.80849 12.4765L1.4549 12.83C1.62383 12.999 1.85306 13.0938 2.09191 13.0938V12.5938Z" fill="black"/>
</svg>
