<svg width="16" height="16" viewBox="0 0 16 16" fill="none" xmlns="http://www.w3.org/2000/svg">
<path id="icn-cancel" d="M13.6778 1.07102C14.1016 0.647162 14.7893 0.647162 15.2132 1.07102C15.6378 1.49561 15.6378 2.18284 15.2137 2.60694L9.67805 8.14257L15.2137 13.6782C15.6379 14.1024 15.6372 14.7892 15.2132 15.2132C14.7889 15.6375 14.1026 15.638 13.6783 15.2136L8.14262 9.67801L2.60698 15.2136C2.18252 15.6381 1.49578 15.6379 1.07107 15.2132C0.647084 14.7892 0.646847 14.1019 1.07107 13.6777L6.6067 8.14209L1.07107 2.60645C0.647084 2.18247 0.646847 1.49524 1.07107 1.07102C1.49493 0.647162 2.18264 0.647162 2.6065 1.07102L8.14214 6.60666L13.6778 1.07102Z" fill="#252A34"/>
</svg>
