<svg width="10" height="10" viewBox="0 0 10 10" fill="none" xmlns="http://www.w3.org/2000/svg">
<path fill-rule="evenodd" clip-rule="evenodd" d="M8.83628 9.08068C8.68541 9.21246 8.50581 9.27836 8.29748 9.27836H1.48708C1.27875 9.27836 1.09915 9.21246 0.948283 9.08068C0.79742 8.94889 0.721988 8.78978 0.721988 8.60334V2.59572H0.387934C0.280175 2.59572 0.188579 2.56197 0.113147 2.49447C0.0377158 2.42697 0 2.34661 0 2.2534C0 2.16018 0.0377158 2.07982 0.113147 2.01232C0.188579 1.94482 0.280175 1.91107 0.387934 1.91107H2.38148V1.35177C2.38148 1.16534 2.45512 1.00623 2.60239 0.87444C2.74966 0.742652 2.93106 0.676758 3.14658 0.676758H6.53022C6.73856 0.676758 6.91816 0.742652 7.06902 0.87444C7.21988 1.00623 7.29532 1.16534 7.29532 1.35177V1.91107H9.27809C9.39303 1.91107 9.48822 1.94482 9.56365 2.01232C9.63908 2.07982 9.6768 2.16179 9.6768 2.25822C9.6768 2.34822 9.63729 2.42697 9.55826 2.49447C9.47924 2.56197 9.38585 2.59572 9.27809 2.59572H9.06257V8.60334C9.06257 8.78978 8.98714 8.94889 8.83628 9.08068ZM3.1358 1.91107H6.53022V1.36141H3.1358V1.91107ZM8.29748 8.60334H1.48708V2.59572H8.29748V8.60334ZM5.10241 7.56672C5.02698 7.63422 4.93718 7.66797 4.83301 7.66797C4.72884 7.66797 4.63905 7.63422 4.56361 7.56672C4.48818 7.49922 4.45047 7.41725 4.45047 7.32082V4.10004C4.45047 4.00361 4.48818 3.92164 4.56361 3.85414C4.63905 3.78664 4.72884 3.75289 4.83301 3.75289C4.93718 3.75289 5.02518 3.78825 5.09702 3.85896C5.17605 3.92325 5.21556 4.00361 5.21556 4.10004V7.32082C5.21556 7.41725 5.17784 7.49922 5.10241 7.56672ZM2.73709 7.66797C2.84485 7.66797 2.93645 7.63422 3.01188 7.56672C3.08731 7.49922 3.12502 7.41725 3.12502 7.32082V4.10004C3.12502 4.00361 3.08551 3.92325 3.00649 3.85896C2.93465 3.78825 2.84485 3.75289 2.73709 3.75289C2.62933 3.75289 2.53774 3.78664 2.4623 3.85414C2.38687 3.92164 2.34916 4.00361 2.34916 4.10004V7.32082C2.34916 7.41725 2.38687 7.49922 2.4623 7.56672C2.53774 7.63422 2.62933 7.66797 2.73709 7.66797ZM7.18217 7.56672C7.10674 7.63422 7.01514 7.66797 6.90738 7.66797C6.79962 7.66797 6.70803 7.63422 6.6326 7.56672C6.55716 7.49922 6.51945 7.41725 6.51945 7.32082V4.10004C6.51945 4.00361 6.55716 3.92164 6.6326 3.85414C6.70803 3.78664 6.79962 3.75289 6.90738 3.75289C7.01514 3.75289 7.10494 3.78825 7.17678 3.85896C7.2558 3.92325 7.29532 4.00361 7.29532 4.10004V7.32082C7.29532 7.41725 7.2576 7.49922 7.18217 7.56672Z" fill="#FF5252"/>
</svg>
