<svg width="22" height="18" viewBox="0 0 22 18" fill="none" xmlns="http://www.w3.org/2000/svg">
<g id="Eye Off - 192x192">
<path id="Shape" d="M9.67235 1.57655C9.39807 1.60853 9.20164 1.85681 9.23362 2.13109C9.2656 2.40538 9.51388 2.60181 9.78817 2.56983L9.67235 1.57655ZM21 9L21.4657 9.18189C21.5114 9.06493 21.5114 8.93507 21.4657 8.81812L21 9ZM19.0462 11.4857C18.8794 11.7057 18.9226 12.0194 19.1426 12.1862C19.3627 12.353 19.6763 12.3098 19.8431 12.0897L19.0462 11.4857ZM5.78003 3.94628C6.01576 3.80246 6.09027 3.49477 5.94646 3.25903C5.80264 3.0233 5.49495 2.94879 5.25921 3.0926L5.78003 3.94628ZM1 9L0.534256 8.81811C0.488581 8.93507 0.488581 9.06493 0.534256 9.18189L1 9ZM16.741 14.9072C16.9767 14.7634 17.0512 14.4557 16.9074 14.22C16.7636 13.9842 16.4559 13.9097 16.2201 14.0536L16.741 14.9072ZM9.23231 7.23216C9.42758 7.0369 9.42759 6.72032 9.23234 6.52505C9.03708 6.32978 8.7205 6.32977 8.52523 6.52502L9.23231 7.23216ZM13.475 11.4747C13.6703 11.2794 13.6703 10.9629 13.475 10.7676C13.2797 10.5724 12.9631 10.5724 12.7679 10.7677L13.475 11.4747ZM9.78817 2.56983C10.1834 2.52374 10.5877 2.5 11 2.5V1.5C10.5492 1.5 10.1063 1.52596 9.67235 1.57655L9.78817 2.56983ZM11 2.5C15.4379 2.5 19.0014 5.25691 20.5342 9.18188L21.4657 8.81812C19.7983 4.54837 15.89 1.5 11 1.5V2.5ZM20.5342 8.81811C20.1561 9.78638 19.6541 10.6836 19.0462 11.4857L19.8431 12.0897C20.5078 11.2128 21.0546 10.2344 21.4657 9.18189L20.5342 8.81811ZM5.25921 3.0926C3.1204 4.39747 1.47283 6.41477 0.534256 8.81811L1.46574 9.18189C2.32939 6.97041 3.8387 5.13065 5.78003 3.94628L5.25921 3.0926ZM0.534256 9.18189C2.20172 13.4517 6.10996 16.5 11 16.5V15.5C6.5621 15.5 2.99856 12.7431 1.46574 8.81811L0.534256 9.18189ZM11 16.5C13.1304 16.5 15.0808 15.9202 16.741 14.9072L16.2201 14.0536C14.7152 14.9718 12.9447 15.5 11 15.5V16.5ZM8.52523 6.52502C7.89234 7.15787 7.5 8.03356 7.5 9H8.5C8.5 8.30944 8.7793 7.68513 9.23231 7.23216L8.52523 6.52502ZM7.5 9C7.5 10.933 9.06702 12.5 11 12.5V11.5C9.6193 11.5 8.5 10.3808 8.5 9H7.5ZM11 12.5C11.9664 12.5 12.8422 12.1077 13.475 11.4747L12.7679 10.7677C12.3149 11.2207 11.6905 11.5 11 11.5V12.5Z" fill="#6E7A8A"/>
<path id="Path" d="M3 1L19 17" stroke="#6E7A8A" stroke-linecap="round"/>
</g>
</svg>
