<svg width="11" height="11" viewBox="0 0 11 11" fill="none" xmlns="http://www.w3.org/2000/svg">
    <path fill-rule="evenodd" clip-rule="evenodd"
        d="M5.34508 7.0177L2.69008 8.1427C2.54008 8.2027 2.40883 8.17645 2.29633 8.06395C2.18383 7.95145 2.15758 7.8202 2.21758 7.6702L3.34258 5.02645C3.35758 4.98145 3.38383 4.9402 3.42133 4.9027L7.88758 0.436445C8.04508 0.278945 8.23633 0.200195 8.46133 0.200195C8.68633 0.200195 8.87758 0.278945 9.03508 0.436445L9.92383 1.3252C10.0813 1.4827 10.1601 1.67395 10.1601 1.89895C10.1601 2.12395 10.0813 2.3152 9.92383 2.4727L5.45758 6.9502C5.42008 6.9802 5.38258 7.0027 5.34508 7.0177ZM7.76383 1.7077L8.65258 2.59645L9.35008 1.89895L8.46133 1.0102L7.76383 1.7077ZM3.39883 6.96144L4.05133 5.4202L7.19008 2.28145L8.07883 3.1702L4.94008 6.30895L3.39883 6.96144ZM10.042 10.1621C9.9632 10.2408 9.86758 10.2802 9.75508 10.2802H0.485078C0.372578 10.2802 0.276953 10.2408 0.198203 10.1621C0.119453 10.0833 0.0800781 9.9877 0.0800781 9.8752C0.0800781 9.7627 0.119453 9.66707 0.198203 9.58832C0.276953 9.50957 0.372578 9.4702 0.485078 9.4702H9.75508C9.86758 9.4702 9.9632 9.50957 10.042 9.58832C10.1207 9.66707 10.1601 9.7627 10.1601 9.8752C10.1601 9.9877 10.1207 10.0833 10.042 10.1621Z"
        fill="#252A34" />
</svg>