<svg width="56" height="56" viewBox="0 0 56 56" fill="none" xmlns="http://www.w3.org/2000/svg">
<circle cx="28" cy="28" r="28" fill="#F1F4F6"/>
<path fill-rule="evenodd" clip-rule="evenodd" d="M23 19.3974V21H20.793C20.1797 21 19.6676 21.4767 19.6072 22.1016L19.1403 27.0412C18.9532 29.0088 18.9532 30.9912 19.1403 32.9587L19.6072 37.8984C19.6676 38.5234 20.1797 39 20.793 39H36.207C36.8203 39 37.3332 38.5234 37.392 37.8984L37.8597 32.9587C38.0468 30.9912 38.0468 29.0088 37.8597 27.0412L37.392 22.1016C37.3332 21.4767 36.8203 21 36.207 21H34V19.3974C34 18.6256 33.434 18 32.7358 18H32.2642C31.566 18 31 18.6256 31 19.3974V21H26V19.3974C26 18.6256 25.434 18 24.7358 18H24.2642C23.566 18 23 18.6256 23 19.3974ZM35.0409 32.0681L34.7135 35.5197C34.6728 35.9562 34.3145 36.2892 33.8861 36.2892H23.1139C22.6855 36.2892 22.3272 35.9562 22.2857 35.5197L21.9591 32.0681C21.8286 30.6921 21.8286 29.3078 21.9591 27.9319L22.2857 24.4802C22.3272 24.0438 22.6855 23.7108 23.1139 23.7108H33.8861C34.3145 23.7108 34.6728 24.0438 34.7135 24.4802L35.0409 27.9319C35.1714 29.3078 35.1714 30.6921 35.0409 32.0681Z" fill="#252A34"/>
<path fill-rule="evenodd" clip-rule="evenodd" d="M26.5573 33H24.4427L24.3598 32.6407C23.8801 30.5611 23.8801 28.4389 24.3598 26.3592L24.4427 26H26.5573L26.6401 26.3592C27.12 28.4389 27.12 30.5611 26.6401 32.6407L26.5573 33Z" fill="#08D9D6"/>
<path fill-rule="evenodd" clip-rule="evenodd" d="M30.0281 27.543C30.0636 27.9164 30.0686 28.2899 30.0412 28.6633C30.8958 28.63 31.753 28.6803 32.6007 28.8153C32.6288 28.8199 32.6569 28.8243 32.685 28.8289L32.738 29.0226C32.826 29.3435 32.8902 29.6661 32.9314 29.9893C33.0019 30.5463 33.0031 31.1062 32.9332 31.6638C32.8927 31.9938 32.8278 32.3226 32.738 32.6498L32.6906 32.8232C32.6188 32.835 32.5471 32.8463 32.4754 32.8571C31.1061 33.061 29.7149 33.0469 28.3493 32.8135L28.0973 32.7706V31.6752L28.3493 31.6323C29.2115 31.4853 30.0842 31.4255 30.9551 31.4532C30.9164 31.0356 30.917 30.617 30.957 30.2C30.5583 30.213 30.1597 30.2074 29.7617 30.1831C29.2888 30.1543 28.8172 30.1 28.3493 30.0204L28.2483 30.0028L28.247 29.9995C28.1853 29.7758 28.1354 29.5509 28.0973 29.3255C27.9676 28.5679 27.9676 27.8046 28.0973 27.047C28.1354 26.8215 28.1853 26.5967 28.247 26.3724L28.2957 26.1956L28.3493 26.1865C28.3924 26.1792 28.4361 26.1718 28.4791 26.165C29.8939 25.9379 31.335 25.9453 32.7486 26.1865L33 26.2295V27.3244L32.7486 27.3673C31.8484 27.521 30.937 27.5797 30.0281 27.543Z" fill="#08D9D6"/>
</svg>
