<svg width="12" height="12" viewBox="0 0 12 12" fill="none" xmlns="http://www.w3.org/2000/svg">
<path fill-rule="evenodd" clip-rule="evenodd" d="M12 6C12 9.31373 9.31373 12 6 12C2.68629 12 0 9.31373 0 6C0 2.68629 2.68629 0 6 0C9.31373 0 12 2.68629 12 6ZM6.75 9C6.75 9.41422 6.41423 9.75 6 9.75C5.58579 9.75 5.25 9.41422 5.25 9C5.25 8.58578 5.58579 8.25 6 8.25C6.41423 8.25 6.75 8.58578 6.75 9ZM6 2.25C5.58579 2.25 5.25 2.58579 5.25 3V6C5.25 6.41423 5.58579 6.75 6 6.75C6.41423 6.75 6.75 6.41423 6.75 6V3C6.75 2.58579 6.41423 2.25 6 2.25Z" fill="#FF0000"/>
</svg>
