<svg width="20" height="16" viewBox="0 0 20 16" fill="none" xmlns="http://www.w3.org/2000/svg">
<path d="M11.4142 14.7991C10.6332 15.5801 9.3668 15.5801 8.5858 14.7991L2.92894 9.14219C0.976323 7.18959 0.976323 4.02378 2.92894 2.07115C4.88157 0.118534 8.0474 0.118534 10 2.07115C11.9526 0.118534 15.1185 0.118534 17.0711 2.07115C18.5753 3.57533 18.9207 5.79943 18.1075 7.63428" stroke="#292929" stroke-linecap="round" stroke-linejoin="round"/>
<path d="M12.7518 11.46C12.6468 11.565 12.5493 11.76 12.5268 11.9025L12.3843 12.915C12.3318 13.2825 12.5868 13.5375 12.9543 13.485L13.9668 13.3425C14.1093 13.32 14.3118 13.2225 14.4093 13.1175L17.0643 10.4625C17.5218 10.005 17.7393 9.47251 17.0643 8.79751C16.3968 8.13001 15.8643 8.34751 15.4068 8.80501L12.7518 11.46Z" stroke="#FF2E63" stroke-width="1.125" stroke-linecap="round" stroke-linejoin="round"/>
<path d="M15.0244 9.1875C15.2494 9.9975 15.8794 10.6275 16.6894 10.8525" stroke="#FF2E63" stroke-width="1.125" stroke-linecap="round" stroke-linejoin="round"/>
</svg>
