<svg width="19" height="18" viewBox="0 0 19 18" fill="none" xmlns="http://www.w3.org/2000/svg">
    <path
        d="M5.97042 5.81622C5.74163 6.04502 5.74163 6.38834 5.97042 6.61714L10.6996 11.3464C10.814 11.4608 10.9476 11.518 11.1002 11.518C11.2527 11.518 11.3862 11.4608 11.5007 11.3464C11.7295 11.1176 11.7295 10.7742 11.5007 10.5454L6.77147 5.81622C6.54268 5.5873 6.19936 5.5873 5.97056 5.81622H5.97042Z"
        fill="#CCD4DB" />
    <path
        d="M5.5703 5.41578C6.00886 4.97722 6.73353 4.97722 7.17209 5.41578L9.11721 7.3609C9.9563 6.46463 9.93713 5.0726 9.07903 4.19534L5.55119 0.667498C5.11263 0.228799 4.52137 0 3.94939 0C3.35828 0 2.78616 0.228792 2.3476 0.667498L0.822008 2.19309C-0.0552529 3.07035 -0.0552529 4.51955 0.822008 5.39668L4.34985 8.92452C4.78841 9.36308 5.37953 9.59202 5.95165 9.59202C6.52376 9.59202 7.07671 9.38225 7.51541 8.96273L5.57029 7.01761C5.13173 6.57905 5.13173 5.85452 5.57029 5.41582L5.5703 5.41578Z"
        fill="#CCD4DB" />
    <path
        d="M16.6496 11.7657L13.1217 8.23781C12.6832 7.79925 12.0921 7.57031 11.5199 7.57031C10.9478 7.57031 10.3949 7.78008 9.95618 8.1996L11.9013 10.1447C12.3399 10.5833 12.3399 11.308 11.9013 11.7465C11.6725 11.9753 11.3864 12.0707 11.1004 12.0707C10.8144 12.0707 10.5283 11.9563 10.2995 11.7465L8.35435 9.8014C7.51526 10.6977 7.53444 12.0897 8.39253 12.967L11.9204 16.4948C12.3589 16.9334 12.9501 17.1623 13.5222 17.1623C14.1133 17.1623 14.6854 16.9335 15.124 16.4948L16.6496 14.9692C17.5457 14.092 17.5457 12.6427 16.6494 11.7655L16.6496 11.7657Z"
        fill="#CCD4DB" />
</svg>