<svg width="80" height="80" viewBox="0 0 80 80" fill="none" xmlns="http://www.w3.org/2000/svg">
<circle cx="40" cy="40" r="40" fill="#F1F4F6"/>
<path fill-rule="evenodd" clip-rule="evenodd" d="M34.2844 54H49.5413C50.9007 53.995 52 52.9126 52 51.579V36.711C52.0001 35.9963 51.6898 35.3155 51.1468 34.839L42.9817 27.639C42.5151 27.2287 41.911 27.0013 41.2844 27H34.2844C32.9214 27 31.8165 28.0839 31.8165 29.421V51.579C31.8165 52.9161 32.9214 54 34.2844 54ZM33.6514 29.421C33.6514 29.078 33.9348 28.8 34.2844 28.8H41.2844C41.459 28.7881 41.632 28.8393 41.7707 28.944L49.9358 36.144C50.0872 36.2769 50.174 36.4667 50.1743 36.666V51.579C50.1743 51.922 49.8909 52.2 49.5413 52.2H34.2844C33.9348 52.2 33.6514 51.922 33.6514 51.579V29.421Z" fill="#252A34"/>
<path d="M49.5413 54V54.5L49.5431 54.5L49.5413 54ZM52 51.579H51.5V51.579L52 51.579ZM52 36.711L51.5 36.7109V36.711H52ZM51.1468 34.839L50.8161 35.214L50.817 35.2148L51.1468 34.839ZM42.9817 27.639L43.3124 27.264L43.3119 27.2635L42.9817 27.639ZM41.2844 27L41.2854 26.5H41.2844V27ZM41.2844 28.8V29.3H41.3015L41.3185 29.2988L41.2844 28.8ZM41.7707 28.944L42.1014 28.569L42.0871 28.5564L42.0719 28.545L41.7707 28.944ZM49.9358 36.144L49.6051 36.519L49.606 36.5198L49.9358 36.144ZM50.1743 36.666H50.6743V36.6651L50.1743 36.666ZM49.5413 53.5H34.2844V54.5H49.5413V53.5ZM51.5 51.579C51.5 52.6282 50.6325 53.496 49.5395 53.5L49.5431 54.5C51.1689 54.4941 52.5 53.197 52.5 51.579L51.5 51.579ZM51.5 36.711V51.579H52.5V36.711H51.5ZM50.817 35.2148C51.2532 35.5975 51.5001 36.142 51.5 36.7109L52.5 36.7111C52.5002 35.8507 52.1265 35.0334 51.4766 34.4632L50.817 35.2148ZM42.651 28.014L50.8161 35.214L51.4775 34.464L43.3124 27.264L42.651 28.014ZM41.2834 27.5C41.7899 27.501 42.2768 27.685 42.6515 28.0145L43.3119 27.2635C42.7535 26.7725 42.032 26.5015 41.2854 26.5L41.2834 27.5ZM34.2844 27.5H41.2844V26.5H34.2844V27.5ZM32.3165 29.421C32.3165 28.3691 33.1885 27.5 34.2844 27.5V26.5C32.6544 26.5 31.3165 27.7988 31.3165 29.421H32.3165ZM32.3165 51.579V29.421H31.3165V51.579H32.3165ZM34.2844 53.5C33.1885 53.5 32.3165 52.6309 32.3165 51.579H31.3165C31.3165 53.2012 32.6544 54.5 34.2844 54.5V53.5ZM34.2844 28.3C33.6678 28.3 33.1514 28.7929 33.1514 29.421H34.1514C34.1514 29.3632 34.2019 29.3 34.2844 29.3V28.3ZM41.2844 28.3H34.2844V29.3H41.2844V28.3ZM42.0719 28.545C41.8364 28.3671 41.5441 28.2811 41.2503 28.3012L41.3185 29.2988C41.3739 29.2951 41.4276 29.3115 41.4694 29.343L42.0719 28.545ZM50.2665 35.769L42.1014 28.569L41.44 29.319L49.6051 36.519L50.2665 35.769ZM50.6743 36.6651C50.6737 36.3204 50.5236 35.9946 50.2656 35.7682L49.606 36.5198C49.6509 36.5592 49.6742 36.613 49.6743 36.6669L50.6743 36.6651ZM50.6743 51.579V36.666H49.6743V51.579H50.6743ZM49.5413 52.7C50.158 52.7 50.6743 52.2071 50.6743 51.579H49.6743C49.6743 51.6368 49.6239 51.7 49.5413 51.7V52.7ZM34.2844 52.7H49.5413V51.7H34.2844V52.7ZM33.1514 51.579C33.1514 52.2071 33.6677 52.7 34.2844 52.7V51.7C34.2019 51.7 34.1514 51.6368 34.1514 51.579H33.1514ZM33.1514 29.421V51.579H34.1514V29.421H33.1514Z" fill="#252A34"/>
<path d="M51.0826 36.846H43C41.8904 36.846 40.9908 35.9635 40.9908 34.875V28.404H42.8257V34.875C42.8257 34.9694 42.9037 35.046 43 35.046H51.0826V36.846Z" fill="#252A34" stroke="#252A34"/>
<rect x="37.6331" y="47.7" width="9.17431" height="1.8" rx="0.9" fill="#08D9D6"/>
<rect x="37.6331" y="43.821" width="3.66972" height="1.8" rx="0.9" fill="#08D9D6"/>
<path d="M30.2844 50.094C29.0219 50.0793 28.0049 49.0736 28 47.835V33.165C27.9999 32.4893 28.3093 31.8493 28.8428 31.4219C29.3763 30.9945 30.0774 30.8249 30.7523 30.96L32.7248 31.284L32.422 33.084L30.4312 32.733C30.2853 32.6942 30.1294 32.7242 30.0092 32.814C29.8997 32.8989 29.8355 33.0281 29.8349 33.165V47.835C29.8376 47.9709 29.9016 48.0987 30.0096 48.1838C30.1177 48.2689 30.2586 48.3027 30.3945 48.276L32.4679 48.006L32.7064 49.806L30.6972 50.067C30.561 50.0905 30.4226 50.0995 30.2844 50.094Z" fill="#252A34"/>
</svg>
