<svg width="15" height="13" viewBox="0 0 15 13" fill="none" xmlns="http://www.w3.org/2000/svg">
<path d="M10.8505 7.22306C10.7943 7.13417 10.7335 7.04994 10.6681 6.96571C10.5745 6.83465 10.4622 6.70837 10.3124 6.55867C10.1767 6.42295 10.0363 6.30132 9.88659 6.19367C9.20343 5.66966 8.37059 5.39355 7.50022 5.39355C6.62053 5.39355 5.78769 5.67898 5.1092 6.19367C4.82844 6.40419 4.57576 6.65688 4.35579 6.9423C4.28565 7.03119 4.22007 7.12475 4.1546 7.22307C3.74755 7.85471 3.52295 8.60812 3.52295 9.37085V11.2424C3.52295 11.6308 3.83644 11.9443 4.22485 11.9443H10.7757C11.1641 11.9443 11.4776 11.6308 11.4776 11.2424V9.37074C11.4775 8.59869 11.2529 7.84531 10.8505 7.22307L10.8505 7.22306Z" fill="#CCD4DB"/>
<path d="M9.60572 2.58607C9.60572 3.74652 8.66055 4.69166 7.50013 4.69166C6.3397 4.69166 5.39453 3.74649 5.39453 2.58607C5.39453 1.42095 6.3397 0.480469 7.50013 0.480469C8.66055 0.480469 9.60572 1.42095 9.60572 2.58607Z" fill="#CCD4DB"/>
<path d="M14.0507 2.58607C14.0507 3.74652 13.1055 4.69166 11.9451 4.69166C10.7846 4.69166 9.83936 3.74649 9.83936 2.58607C9.83936 1.42095 10.7845 0.480469 11.945 0.480469C13.1054 0.480469 14.0507 1.42095 14.0507 2.58607Z" fill="#CCD4DB"/>
<path d="M14.9866 8.43486V10.3065C14.9866 10.6949 14.6731 11.0084 14.2847 11.0084H12.1791V9.37071C12.1791 8.47705 11.9171 7.57861 11.4445 6.84864C11.3743 6.741 11.2994 6.63812 11.2386 6.55855C11.1263 6.39942 10.9953 6.24972 10.8082 6.06262C10.7005 5.95497 10.5929 5.85676 10.4854 5.76787C10.9251 5.52451 11.4258 5.39355 11.9452 5.39355C12.7546 5.39355 13.5174 5.70705 14.093 6.2779C14.6731 6.86273 14.9867 7.62546 14.9867 8.43489L14.9866 8.43486Z" fill="#CCD4DB"/>
<path d="M4.51922 5.76796C4.25721 5.98325 4.01385 6.23583 3.80334 6.50725C3.72377 6.61023 3.6442 6.71776 3.56475 6.84415C3.07801 7.59756 2.82068 8.47256 2.82068 9.37088V11.0086H0.715087C0.326678 11.0086 0.0131836 10.6951 0.0131836 10.3067V8.43503C0.0131836 6.75989 1.37949 5.39355 3.05466 5.39355C3.57412 5.39355 4.07472 5.52461 4.51929 5.76787L4.51922 5.76796Z" fill="#CCD4DB"/>
<path d="M5.16053 2.58607C5.16053 3.74652 4.21536 4.69166 3.05493 4.69166C1.8945 4.69166 0.949219 3.74649 0.949219 2.58607C0.949219 1.42095 1.89439 0.480469 3.05482 0.480469C4.21524 0.480469 5.16053 1.42095 5.16053 2.58607Z" fill="#CCD4DB"/>
</svg>
