<svg width="20" height="20" viewBox="0 0 20 20" fill="none" xmlns="http://www.w3.org/2000/svg">
<path fill-rule="evenodd" clip-rule="evenodd" d="M18.6158 7.5391L10.7408 0.64847C10.3167 0.277333 9.68331 0.277333 9.25919 0.64847L1.38419 7.5391C1.14004 7.75272 1 8.06137 1 8.3857V18.0003C1 18.6216 1.50368 19.1253 2.125 19.1253H6.625C7.24632 19.1253 7.75 18.6216 7.75 18.0003V13.5003C7.75 12.879 8.25366 12.3753 8.875 12.3753H11.125C11.7463 12.3753 12.25 12.879 12.25 13.5003V18.0003C12.25 18.6216 12.7537 19.1253 13.375 19.1253H17.875C18.4963 19.1253 19 18.6216 19 18.0003V8.3857C19 8.06137 18.8599 7.75272 18.6158 7.5391Z" stroke="#252A34" stroke-linecap="round" stroke-linejoin="round"/>
</svg>
