<svg width="24" height="24" viewBox="0 0 24 24" fill="none" xmlns="http://www.w3.org/2000/svg">
<circle cx="12" cy="12" r="11.75" fill="#F1F4F6" stroke="white" stroke-width="0.5"/>
<mask id="path-2-inside-1_0_29483" fill="white">
<path fill-rule="evenodd" clip-rule="evenodd" d="M16.8887 12.8129L20.3529 12.8075L20.3559 10.7174C20.3578 9.44041 19.3241 8.40677 18.0472 8.40861L16.895 8.41032V8.41028L16.8949 8.41028L16.8962 7.25765C16.898 5.98074 15.8644 4.94716 14.5875 4.94889L12.4973 4.9519L12.4923 8.41662L12.4924 8.41663L12.486 12.8193L16.8886 12.8129L16.8931 9.73205L16.8887 12.8129Z"/>
</mask>
<path fill-rule="evenodd" clip-rule="evenodd" d="M16.8887 12.8129L20.3529 12.8075L20.3559 10.7174C20.3578 9.44041 19.3241 8.40677 18.0472 8.40861L16.895 8.41032V8.41028L16.8949 8.41028L16.8962 7.25765C16.898 5.98074 15.8644 4.94716 14.5875 4.94889L12.4973 4.9519L12.4923 8.41662L12.4924 8.41663L12.486 12.8193L16.8886 12.8129L16.8931 9.73205L16.8887 12.8129Z" fill="#FF2E63"/>
<path d="M20.3529 12.8075L20.3537 13.3075L20.8522 13.3068L20.8529 12.8082L20.3529 12.8075ZM16.8887 12.8129L16.3887 12.8122L16.388 13.3137L16.8894 13.3129L16.8887 12.8129ZM20.3559 10.7174L20.8559 10.7181L20.8559 10.7181L20.3559 10.7174ZM18.0472 8.40861L18.0464 7.90861L18.0464 7.90861L18.0472 8.40861ZM16.895 8.41032L16.395 8.41032V8.91107L16.8957 8.91032L16.895 8.41032ZM16.895 8.41028L17.395 8.41028L17.395 7.99936L16.9918 7.91976L16.895 8.41028ZM16.8949 8.41028L16.3949 8.40972L16.3945 8.82112L16.7981 8.90081L16.8949 8.41028ZM16.8962 7.25765L16.3962 7.25695L16.3962 7.25709L16.8962 7.25765ZM14.5875 4.94889L14.5868 4.44889L14.5868 4.44889L14.5875 4.94889ZM12.4973 4.9519L12.4966 4.4519L11.998 4.45262L11.9973 4.95118L12.4973 4.9519ZM12.4923 8.41662L11.9923 8.4159L11.9917 8.82435L12.3919 8.90642L12.4923 8.41662ZM12.4924 8.41663L12.9924 8.41735L12.9929 8.0089L12.5928 7.92682L12.4924 8.41663ZM12.486 12.8193L11.986 12.8186L11.9852 13.32L12.4867 13.3193L12.486 12.8193ZM16.8886 12.8129L16.8894 13.3129L17.3879 13.3122L17.3886 12.8136L16.8886 12.8129ZM16.8931 9.73205L17.3931 9.73277L16.3931 9.73133L16.8931 9.73205ZM20.3521 12.3075L16.8879 12.3129L16.8894 13.3129L20.3537 13.3075L20.3521 12.3075ZM19.8559 10.7166L19.8529 12.8068L20.8529 12.8082L20.8559 10.7181L19.8559 10.7166ZM18.0479 8.90861C19.0481 8.90717 19.8574 9.71639 19.8559 10.7166L20.8559 10.7181C20.8582 9.16442 19.6001 7.90637 18.0464 7.90861L18.0479 8.90861ZM16.8957 8.91032L18.0479 8.90861L18.0464 7.90861L16.8942 7.91032L16.8957 8.91032ZM17.395 8.41032V8.41028L16.395 8.41028V8.41032L17.395 8.41032ZM16.9918 7.91976L16.9918 7.91975L16.7981 8.90081L16.7981 8.90081L16.9918 7.91976ZM17.3949 8.41084L17.3962 7.25821L16.3962 7.25709L16.3949 8.40972L17.3949 8.41084ZM17.3962 7.25835C17.3984 5.70474 16.1404 4.44678 14.5868 4.44889L14.5882 5.44889C15.5885 5.44753 16.3976 6.25674 16.3962 7.25695L17.3962 7.25835ZM14.5868 4.44889L12.4966 4.4519L12.498 5.4519L14.5882 5.44889L14.5868 4.44889ZM11.9973 4.95118L11.9923 8.4159L12.9923 8.41734L12.9973 4.95262L11.9973 4.95118ZM12.3919 8.90642L12.3919 8.90643L12.5928 7.92682L12.5928 7.92682L12.3919 8.90642ZM11.9924 8.4159L11.986 12.8186L12.986 12.82L12.9924 8.41735L11.9924 8.4159ZM12.4867 13.3193L16.8894 13.3129L16.8879 12.3129L12.4852 12.3193L12.4867 13.3193ZM17.3886 12.8136L17.3931 9.73277L16.3931 9.73133L16.3886 12.8122L17.3886 12.8136ZM17.3887 12.8136L17.3931 9.73277L16.3931 9.73134L16.3887 12.8122L17.3887 12.8136Z" fill="white" mask="url(#path-2-inside-1_0_29483)"/>
<mask id="path-4-inside-2_0_29483" fill="white">
<path fill-rule="evenodd" clip-rule="evenodd" d="M16.8887 12.232L20.3529 12.2374L20.3559 14.3276C20.3578 15.6045 19.3241 16.6382 18.0472 16.6363L16.895 16.6346V16.6346L16.8949 16.6346L16.8962 17.7873C16.898 19.0642 15.8644 20.0978 14.5875 20.096L12.4973 20.093L12.4923 16.6283L12.4924 16.6283L12.486 12.2256L16.8886 12.232L16.8931 15.3129L16.8887 12.232Z"/>
</mask>
<path fill-rule="evenodd" clip-rule="evenodd" d="M16.8887 12.232L20.3529 12.2374L20.3559 14.3276C20.3578 15.6045 19.3241 16.6382 18.0472 16.6363L16.895 16.6346V16.6346L16.8949 16.6346L16.8962 17.7873C16.898 19.0642 15.8644 20.0978 14.5875 20.096L12.4973 20.093L12.4923 16.6283L12.4924 16.6283L12.486 12.2256L16.8886 12.232L16.8931 15.3129L16.8887 12.232Z" fill="#FF2E63"/>
<path d="M20.3529 12.2374L20.3537 11.7374L20.8522 11.7382L20.8529 12.2367L20.3529 12.2374ZM16.8887 12.232L16.3887 12.2327L16.388 11.7313L16.8894 11.732L16.8887 12.232ZM20.3559 14.3276L20.8559 14.3268L20.8559 14.3268L20.3559 14.3276ZM18.0472 16.6363L18.0464 17.1363L18.0464 17.1363L18.0472 16.6363ZM16.895 16.6346L16.395 16.6346V16.1339L16.8957 16.1346L16.895 16.6346ZM16.895 16.6346L17.395 16.6346L17.395 17.0456L16.9918 17.1252L16.895 16.6346ZM16.8949 16.6346L16.3949 16.6352L16.3945 16.2238L16.7981 16.1441L16.8949 16.6346ZM16.8962 17.7873L16.3962 17.788L16.3962 17.7878L16.8962 17.7873ZM14.5875 20.096L14.5868 20.596L14.5868 20.596L14.5875 20.096ZM12.4973 20.093L12.4966 20.593L11.998 20.5923L11.9973 20.0937L12.4973 20.093ZM12.4923 16.6283L11.9923 16.629L11.9917 16.2206L12.3919 16.1385L12.4923 16.6283ZM12.4924 16.6283L12.9924 16.6276L12.9929 17.036L12.5928 17.1181L12.4924 16.6283ZM12.486 12.2256L11.986 12.2264L11.9852 11.7249L12.4867 11.7256L12.486 12.2256ZM16.8886 12.232L16.8894 11.732L17.3879 11.7327L17.3886 12.2313L16.8886 12.232ZM16.8931 15.3129L17.3931 15.3122L16.3931 15.3136L16.8931 15.3129ZM20.3521 12.7374L16.8879 12.732L16.8894 11.732L20.3537 11.7374L20.3521 12.7374ZM19.8559 14.3283L19.8529 12.2381L20.8529 12.2367L20.8559 14.3268L19.8559 14.3283ZM18.0479 16.1363C19.0481 16.1378 19.8574 15.3285 19.8559 14.3283L20.8559 14.3268C20.8582 15.8805 19.6001 17.1385 18.0464 17.1363L18.0479 16.1363ZM16.8957 16.1346L18.0479 16.1363L18.0464 17.1363L16.8942 17.1346L16.8957 16.1346ZM17.395 16.6346V16.6346L16.395 16.6346V16.6346L17.395 16.6346ZM16.9918 17.1252L16.9918 17.1252L16.7981 16.1441L16.7981 16.1441L16.9918 17.1252ZM17.3949 16.6341L17.3962 17.7867L16.3962 17.7878L16.3949 16.6352L17.3949 16.6341ZM17.3962 17.7866C17.3984 19.3402 16.1404 20.5981 14.5868 20.596L14.5882 19.596C15.5885 19.5974 16.3976 18.7882 16.3962 17.788L17.3962 17.7866ZM14.5868 20.596L12.4966 20.593L12.498 19.593L14.5882 19.596L14.5868 20.596ZM11.9973 20.0937L11.9923 16.629L12.9923 16.6276L12.9973 20.0923L11.9973 20.0937ZM12.3919 16.1385L12.3919 16.1385L12.5928 17.1181L12.5928 17.1181L12.3919 16.1385ZM11.9924 16.629L11.986 12.2264L12.986 12.2249L12.9924 16.6276L11.9924 16.629ZM12.4867 11.7256L16.8894 11.732L16.8879 12.732L12.4852 12.7256L12.4867 11.7256ZM17.3886 12.2313L17.3931 15.3121L16.3931 15.3136L16.3886 12.2327L17.3886 12.2313ZM17.3887 12.2313L17.3931 15.3122L16.3931 15.3136L16.3887 12.2327L17.3887 12.2313Z" fill="white" mask="url(#path-4-inside-2_0_29483)"/>
<mask id="path-6-inside-3_0_29483" fill="white">
<path fill-rule="evenodd" clip-rule="evenodd" d="M8.15479 12.232L4.69054 12.2374L4.68753 14.3276C4.68569 15.6045 5.71933 16.6382 6.99629 16.6363L8.14848 16.6346V16.6346L8.14851 16.6346L8.14722 17.7873C8.14543 19.0642 9.17902 20.0978 10.456 20.096L12.5461 20.093L12.5511 16.6283L12.5511 16.6283L12.5575 12.2256L8.15482 12.232L8.15039 15.3129L8.15479 12.232Z"/>
</mask>
<path fill-rule="evenodd" clip-rule="evenodd" d="M8.15479 12.232L4.69054 12.2374L4.68753 14.3276C4.68569 15.6045 5.71933 16.6382 6.99629 16.6363L8.14848 16.6346V16.6346L8.14851 16.6346L8.14722 17.7873C8.14543 19.0642 9.17902 20.0978 10.456 20.096L12.5461 20.093L12.5511 16.6283L12.5511 16.6283L12.5575 12.2256L8.15482 12.232L8.15039 15.3129L8.15479 12.232Z" fill="#FF2E63"/>
<path d="M4.69054 12.2374L4.68977 11.7374L4.19126 11.7382L4.19054 12.2367L4.69054 12.2374ZM8.15479 12.232L8.65479 12.2327L8.6555 11.7313L8.15401 11.732L8.15479 12.232ZM4.68753 14.3276L4.18753 14.3268L4.18753 14.3268L4.68753 14.3276ZM6.99629 16.6363L6.99701 17.1363L6.99703 17.1363L6.99629 16.6363ZM8.14848 16.6346L8.64848 16.6346V16.1339L8.14774 16.1346L8.14848 16.6346ZM8.14848 16.6346L7.64848 16.6346L7.64848 17.0456L8.05163 17.1252L8.14848 16.6346ZM8.14851 16.6346L8.64851 16.6352L8.64897 16.2238L8.24537 16.1441L8.14851 16.6346ZM8.14722 17.7873L8.64722 17.788L8.64722 17.7878L8.14722 17.7873ZM10.456 20.096L10.4567 20.596L10.4567 20.596L10.456 20.096ZM12.5461 20.093L12.5469 20.593L13.0454 20.5923L13.0461 20.0937L12.5461 20.093ZM12.5511 16.6283L13.0511 16.629L13.0517 16.2206L12.6516 16.1385L12.5511 16.6283ZM12.5511 16.6283L12.0511 16.6276L12.0505 17.036L12.4506 17.1181L12.5511 16.6283ZM12.5575 12.2256L13.0575 12.2264L13.0582 11.7249L12.5568 11.7256L12.5575 12.2256ZM8.15482 12.232L8.1541 11.732L7.65554 11.7327L7.65482 12.2313L8.15482 12.232ZM8.15039 15.3129L7.65039 15.3122L8.65039 15.3136L8.15039 15.3129ZM4.69132 12.7374L8.15556 12.732L8.15401 11.732L4.68977 11.7374L4.69132 12.7374ZM5.18753 14.3283L5.19054 12.2381L4.19054 12.2367L4.18753 14.3268L5.18753 14.3283ZM6.99557 16.1363C5.99532 16.1378 5.18609 15.3285 5.18753 14.3283L4.18753 14.3268C4.1853 15.8805 5.44335 17.1385 6.99701 17.1363L6.99557 16.1363ZM8.14774 16.1346L6.99555 16.1363L6.99703 17.1363L8.14923 17.1346L8.14774 16.1346ZM7.64848 16.6346V16.6346L8.64848 16.6346V16.6346L7.64848 16.6346ZM8.05163 17.1252L8.05165 17.1252L8.24537 16.1441L8.24534 16.1441L8.05163 17.1252ZM7.64851 16.6341L7.64722 17.7867L8.64722 17.7878L8.64851 16.6352L7.64851 16.6341ZM7.64722 17.7866C7.64505 19.3402 8.90304 20.5981 10.4567 20.596L10.4553 19.596C9.455 19.5974 8.64582 18.7882 8.64722 17.788L7.64722 17.7866ZM10.4567 20.596L12.5469 20.593L12.5454 19.593L10.4553 19.596L10.4567 20.596ZM13.0461 20.0937L13.0511 16.629L12.0511 16.6276L12.0461 20.0923L13.0461 20.0937ZM12.6516 16.1385L12.6516 16.1385L12.4506 17.1181L12.4507 17.1181L12.6516 16.1385ZM13.0511 16.629L13.0575 12.2264L12.0575 12.2249L12.0511 16.6276L13.0511 16.629ZM12.5568 11.7256L8.1541 11.732L8.15555 12.732L12.5582 12.7256L12.5568 11.7256ZM7.65482 12.2313L7.65039 15.3121L8.65039 15.3136L8.65482 12.2327L7.65482 12.2313ZM7.65479 12.2313L7.65039 15.3122L8.65039 15.3136L8.65479 12.2327L7.65479 12.2313Z" fill="white" mask="url(#path-6-inside-3_0_29483)"/>
</svg>
