<svg width="24" height="24" viewBox="0 0 24 24" fill="none" xmlns="http://www.w3.org/2000/svg">
<circle cx="12" cy="12" r="11.75" fill="#F1F4F6" stroke="white" stroke-width="0.5"/>
<mask id="path-2-inside-1_0_29458" fill="white">
<path fill-rule="evenodd" clip-rule="evenodd" d="M15.3582 12.7731L18 10.2338L16.4059 8.70193C15.4319 7.76602 13.853 7.76602 12.8791 8.70193L12.0004 9.54643L12.0003 9.5464L12.0003 9.54642L11.1209 8.70191C10.147 7.76608 8.56813 7.76608 7.59413 8.70191L6 10.2338L8.64249 12.7732L8.64251 12.7732L12.0003 16L15.3581 12.7732L13.0093 10.516L15.3582 12.7731Z"/>
</mask>
<path fill-rule="evenodd" clip-rule="evenodd" d="M15.3582 12.7731L18 10.2338L16.4059 8.70193C15.4319 7.76602 13.853 7.76602 12.8791 8.70193L12.0004 9.54643L12.0003 9.5464L12.0003 9.54642L11.1209 8.70191C10.147 7.76608 8.56813 7.76608 7.59413 8.70191L6 10.2338L8.64249 12.7732L8.64251 12.7732L12.0003 16L15.3581 12.7732L13.0093 10.516L15.3582 12.7731Z" fill="#FF2E63"/>
<path d="M18 10.2338L18.3465 10.5943L18.7216 10.2338L18.3464 9.87333L18 10.2338ZM15.3582 12.7731L15.0117 13.1336L15.3582 13.4666L15.7046 13.1336L15.3582 12.7731ZM16.4059 8.70193L16.0594 9.06245L16.4059 8.70193ZM12.8791 8.70193L12.5326 8.34141L12.5326 8.34143L12.8791 8.70193ZM12.0004 9.54643L11.6529 9.90603L11.9994 10.2408L12.3468 9.90693L12.0004 9.54643ZM12.0003 9.5464L12.3477 9.18681L12.0631 8.91186L11.7302 9.12568L12.0003 9.5464ZM12.0003 9.54642L11.654 9.90705L11.9385 10.1803L12.2705 9.96714L12.0003 9.54642ZM11.1209 8.70191L10.7745 9.06244L10.7746 9.06254L11.1209 8.70191ZM7.59413 8.70191L7.24771 8.34136L7.24769 8.34139L7.59413 8.70191ZM6 10.2338L5.65355 9.8733L5.27839 10.2338L5.65355 10.5943L6 10.2338ZM8.64249 12.7732L8.29604 13.1337L8.57754 13.4042L8.90824 13.1967L8.64249 12.7732ZM8.64251 12.7732L8.98897 12.4126L8.70747 12.1421L8.37677 12.3496L8.64251 12.7732ZM12.0003 16L11.6539 16.3605L12.0003 16.6935L12.3468 16.3605L12.0003 16ZM15.3581 12.7732L15.7046 13.1337L16.0797 12.7732L15.7046 12.4126L15.3581 12.7732ZM13.0093 10.516L13.3557 10.1555L12.6628 10.8765L13.0093 10.516ZM17.6535 9.87336L15.0117 12.4126L15.7046 13.1336L18.3465 10.5943L17.6535 9.87336ZM16.0594 9.06245L17.6536 10.5944L18.3464 9.87333L16.7523 8.34141L16.0594 9.06245ZM13.2255 9.06245C14.0059 8.31252 15.279 8.31252 16.0594 9.06245L16.7523 8.34141C15.5849 7.21953 13.7001 7.21953 12.5326 8.34141L13.2255 9.06245ZM12.3468 9.90693L13.2255 9.06243L12.5326 8.34143L11.6539 9.18593L12.3468 9.90693ZM12.3478 9.18684L12.3477 9.18681L11.6529 9.906L11.6529 9.90603L12.3478 9.18684ZM11.7302 9.12568L11.7301 9.1257L12.2705 9.96714L12.2705 9.96713L11.7302 9.12568ZM12.3466 9.18579L11.4673 8.34128L10.7746 9.06254L11.654 9.90705L12.3466 9.18579ZM11.4674 8.34137C10.2999 7.21958 8.41523 7.2196 7.24771 8.34136L7.94055 9.06245C8.72104 8.31255 9.99411 8.31257 10.7745 9.06244L11.4674 8.34137ZM7.24769 8.34139L5.65355 9.8733L6.34645 10.5943L7.94058 9.06243L7.24769 8.34139ZM5.65355 10.5943L8.29604 13.1337L8.98894 12.4127L6.34645 9.8733L5.65355 10.5943ZM8.90824 13.1967L8.90826 13.1967L8.37677 12.3496L8.37674 12.3496L8.90824 13.1967ZM8.29606 13.1337L11.6539 16.3605L12.3468 15.6395L8.98897 12.4126L8.29606 13.1337ZM12.3468 16.3605L15.7046 13.1337L15.0117 12.4126L11.6539 15.6395L12.3468 16.3605ZM15.7046 12.4126L13.3557 10.1555L12.6628 10.8765L15.0117 13.1337L15.7046 12.4126ZM15.7046 12.4126L13.3557 10.1555L12.6628 10.8765L15.0117 13.1336L15.7046 12.4126Z" fill="white" mask="url(#path-2-inside-1_0_29458)"/>
</svg>
