<svg width="24" height="24" viewBox="0 0 24 24" fill="none" xmlns="http://www.w3.org/2000/svg">
<circle cx="12" cy="12" r="11.75" fill="#F1F4F6" stroke="white" stroke-width="0.5"/>
<mask id="path-2-inside-1_0_29504" fill="white">
<path fill-rule="evenodd" clip-rule="evenodd" d="M16.6162 11.809L20.0805 11.8036L20.0835 9.71346C20.0853 8.4365 19.0517 7.40286 17.7747 7.4047L16.6225 7.40642V7.40638L16.6225 7.40637L16.6238 6.25374C16.6256 4.97684 15.592 3.94325 14.315 3.94498L12.2249 3.94799L12.2199 7.41271L12.2199 7.41272L12.2135 11.8154L16.6162 11.809L16.6206 8.72815L16.6162 11.809Z"/>
</mask>
<path fill-rule="evenodd" clip-rule="evenodd" d="M16.6162 11.809L20.0805 11.8036L20.0835 9.71346C20.0853 8.4365 19.0517 7.40286 17.7747 7.4047L16.6225 7.40642V7.40638L16.6225 7.40637L16.6238 6.25374C16.6256 4.97684 15.592 3.94325 14.315 3.94498L12.2249 3.94799L12.2199 7.41271L12.2199 7.41272L12.2135 11.8154L16.6162 11.809L16.6206 8.72815L16.6162 11.809Z" fill="#FF2E63"/>
<path d="M20.0805 11.8036L20.0812 12.3036L20.5797 12.3028L20.5805 11.8043L20.0805 11.8036ZM16.6162 11.809L16.1162 11.8083L16.1155 12.3098L16.617 12.309L16.6162 11.809ZM20.0835 9.71346L20.5835 9.71418L20.5835 9.71418L20.0835 9.71346ZM17.7747 7.4047L17.774 6.9047L17.774 6.9047L17.7747 7.4047ZM16.6225 7.40642L16.1225 7.40642V7.90716L16.6233 7.90641L16.6225 7.40642ZM16.6225 7.40638L17.1225 7.40638L17.1225 6.99545L16.7194 6.91585L16.6225 7.40638ZM16.6225 7.40637L16.1225 7.40581L16.122 7.81721L16.5256 7.8969L16.6225 7.40637ZM16.6238 6.25374L16.1238 6.25304L16.1238 6.25318L16.6238 6.25374ZM14.315 3.94498L14.3143 3.44498L14.3143 3.44498L14.315 3.94498ZM12.2249 3.94799L12.2241 3.44799L11.7256 3.44871L11.7249 3.94727L12.2249 3.94799ZM12.2199 7.41271L11.7199 7.41199L11.7193 7.82044L12.1194 7.90252L12.2199 7.41271ZM12.2199 7.41272L12.7199 7.41345L12.7205 7.00499L12.3204 6.92292L12.2199 7.41272ZM12.2135 11.8154L11.7135 11.8147L11.7128 12.3161L12.2142 12.3154L12.2135 11.8154ZM16.6162 11.809L16.6169 12.309L17.1155 12.3083L17.1162 11.8097L16.6162 11.809ZM16.6206 8.72815L17.1206 8.72886L16.1206 8.72743L16.6206 8.72815ZM20.0797 11.3036L16.6154 11.309L16.617 12.309L20.0812 12.3036L20.0797 11.3036ZM19.5835 9.71274L19.5805 11.8029L20.5805 11.8043L20.5835 9.71418L19.5835 9.71274ZM17.7754 7.9047C18.7757 7.90326 19.5849 8.71249 19.5835 9.71274L20.5835 9.71418C20.5857 8.16052 19.3276 6.90247 17.774 6.9047L17.7754 7.9047ZM16.6233 7.90641L17.7754 7.9047L17.774 6.9047L16.6218 6.90642L16.6233 7.90641ZM17.1225 7.40642V7.40638L16.1225 7.40638V7.40642L17.1225 7.40642ZM16.7194 6.91585L16.7193 6.91584L16.5256 7.8969L16.5257 7.89691L16.7194 6.91585ZM17.1225 7.40693L17.1238 6.2543L16.1238 6.25318L16.1225 7.40581L17.1225 7.40693ZM17.1238 6.25444C17.1259 4.70083 15.868 3.44287 14.3143 3.44498L14.3157 4.44498C15.316 4.44363 16.1252 5.25284 16.1238 6.25304L17.1238 6.25444ZM14.3143 3.44498L12.2241 3.44799L12.2256 4.44799L14.3157 4.44498L14.3143 3.44498ZM11.7249 3.94727L11.7199 7.41199L12.7199 7.41343L12.7249 3.94871L11.7249 3.94727ZM12.1194 7.90252L12.1194 7.90252L12.3204 6.92292L12.3203 6.92291L12.1194 7.90252ZM11.7199 7.41199L11.7135 11.8147L12.7135 11.8161L12.7199 7.41345L11.7199 7.41199ZM12.2142 12.3154L16.6169 12.309L16.6154 11.309L12.2128 11.3154L12.2142 12.3154ZM17.1162 11.8097L17.1206 8.72887L16.1206 8.72743L16.1162 11.8083L17.1162 11.8097ZM17.1162 11.8097L17.1206 8.72886L16.1206 8.72743L16.1162 11.8083L17.1162 11.8097Z" fill="white" mask="url(#path-2-inside-1_0_29504)"/>
<mask id="path-4-inside-2_0_29504" fill="white">
<path fill-rule="evenodd" clip-rule="evenodd" d="M16.6162 11.5729L20.0805 11.5782L20.0835 13.6684C20.0853 14.9453 19.0517 15.979 17.7747 15.9771L16.6225 15.9754V15.9755L16.6225 15.9755L16.6238 17.1281C16.6256 18.405 15.592 19.4386 14.315 19.4369L12.2249 19.4338L12.2199 15.9691L12.2199 15.9691L12.2135 11.5664L16.6162 11.5728L16.6206 14.6537L16.6162 11.5729Z"/>
</mask>
<path fill-rule="evenodd" clip-rule="evenodd" d="M16.6162 11.5729L20.0805 11.5782L20.0835 13.6684C20.0853 14.9453 19.0517 15.979 17.7747 15.9771L16.6225 15.9754V15.9755L16.6225 15.9755L16.6238 17.1281C16.6256 18.405 15.592 19.4386 14.315 19.4369L12.2249 19.4338L12.2199 15.9691L12.2199 15.9691L12.2135 11.5664L16.6162 11.5728L16.6206 14.6537L16.6162 11.5729Z" fill="#FF2E63"/>
<path d="M20.0805 11.5782L20.0812 11.0782L20.5797 11.079L20.5805 11.5775L20.0805 11.5782ZM16.6162 11.5729L16.1162 11.5736L16.1155 11.0721L16.617 11.0729L16.6162 11.5729ZM20.0835 13.6684L20.5835 13.6677L20.5835 13.6677L20.0835 13.6684ZM17.7747 15.9771L17.774 16.4771L17.774 16.4771L17.7747 15.9771ZM16.6225 15.9754L16.1225 15.9754V15.4747L16.6233 15.4754L16.6225 15.9754ZM16.6225 15.9755L17.1225 15.9755L17.1225 16.3864L16.7194 16.466L16.6225 15.9755ZM16.6225 15.9755L16.1225 15.976L16.122 15.5646L16.5256 15.4849L16.6225 15.9755ZM16.6238 17.1281L16.1238 17.1288L16.1238 17.1287L16.6238 17.1281ZM14.315 19.4369L14.3143 19.9369L14.3143 19.9369L14.315 19.4369ZM12.2249 19.4338L12.2241 19.9338L11.7256 19.9331L11.7249 19.4346L12.2249 19.4338ZM12.2199 15.9691L11.7199 15.9698L11.7193 15.5614L12.1194 15.4793L12.2199 15.9691ZM12.2199 15.9691L12.7199 15.9684L12.7205 16.3768L12.3204 16.4589L12.2199 15.9691ZM12.2135 11.5664L11.7135 11.5672L11.7128 11.0657L12.2142 11.0664L12.2135 11.5664ZM16.6162 11.5728L16.6169 11.0728L17.1155 11.0736L17.1162 11.5721L16.6162 11.5728ZM16.6206 14.6537L17.1206 14.653L16.1206 14.6544L16.6206 14.6537ZM20.0797 12.0782L16.6154 12.0729L16.617 11.0729L20.0812 11.0782L20.0797 12.0782ZM19.5835 13.6691L19.5805 11.5789L20.5805 11.5775L20.5835 13.6677L19.5835 13.6691ZM17.7754 15.4771C18.7757 15.4786 19.5849 14.6693 19.5835 13.6691L20.5835 13.6677C20.5857 15.2213 19.3276 16.4794 17.774 16.4771L17.7754 15.4771ZM16.6233 15.4754L17.7754 15.4771L17.774 16.4771L16.6218 16.4754L16.6233 15.4754ZM17.1225 15.9754V15.9755L16.1225 15.9755V15.9754L17.1225 15.9754ZM16.7194 16.466L16.7193 16.466L16.5256 15.4849L16.5257 15.4849L16.7194 16.466ZM17.1225 15.9749L17.1238 17.1275L16.1238 17.1287L16.1225 15.976L17.1225 15.9749ZM17.1238 17.1274C17.1259 18.681 15.868 19.939 14.3143 19.9369L14.3157 18.9369C15.316 18.9382 16.1252 18.129 16.1238 17.1288L17.1238 17.1274ZM14.3143 19.9369L12.2241 19.9338L12.2256 18.9338L14.3157 18.9369L14.3143 19.9369ZM11.7249 19.4346L11.7199 15.9698L12.7199 15.9684L12.7249 19.4331L11.7249 19.4346ZM12.1194 15.4793L12.1194 15.4793L12.3204 16.4589L12.3203 16.4589L12.1194 15.4793ZM11.7199 15.9698L11.7135 11.5672L12.7135 11.5657L12.7199 15.9684L11.7199 15.9698ZM12.2142 11.0664L16.6169 11.0728L16.6154 12.0728L12.2128 12.0664L12.2142 11.0664ZM17.1162 11.5721L17.1206 14.653L16.1206 14.6544L16.1162 11.5736L17.1162 11.5721ZM17.1162 11.5721L17.1206 14.653L16.1206 14.6544L16.1162 11.5736L17.1162 11.5721Z" fill="white" mask="url(#path-4-inside-2_0_29504)"/>
<mask id="path-6-inside-3_0_29504" fill="white">
<path fill-rule="evenodd" clip-rule="evenodd" d="M12.455 7.41211L12.4496 3.94787L10.3595 3.94486C9.0825 3.94302 8.04886 4.97665 8.0507 6.25362L8.05241 7.40581H8.05237L8.05237 7.40583L6.89974 7.40454C5.62283 7.40276 4.58925 8.43634 4.59098 9.7133L4.59399 11.8035L8.05871 11.8085L8.05872 11.8084L12.4614 11.8148L12.455 7.41215L9.37414 7.40771L12.455 7.41211Z"/>
</mask>
<path fill-rule="evenodd" clip-rule="evenodd" d="M12.455 7.41211L12.4496 3.94787L10.3595 3.94486C9.0825 3.94302 8.04886 4.97665 8.0507 6.25362L8.05241 7.40581H8.05237L8.05237 7.40583L6.89974 7.40454C5.62283 7.40276 4.58925 8.43634 4.59098 9.7133L4.59399 11.8035L8.05871 11.8085L8.05872 11.8084L12.4614 11.8148L12.455 7.41215L9.37414 7.40771L12.455 7.41211Z" fill="#FF2E63"/>
<path d="M12.4496 3.94787L12.9496 3.94709L12.9488 3.44858L12.4503 3.44787L12.4496 3.94787ZM12.455 7.41211L12.4543 7.91211L12.9558 7.91283L12.955 7.41134L12.455 7.41211ZM10.3595 3.94486L10.3602 3.44486L10.3602 3.44486L10.3595 3.94486ZM8.0507 6.25362L7.5507 6.25434L7.5507 6.25436L8.0507 6.25362ZM8.05241 7.40581L8.05241 7.90581H8.55316L8.55241 7.40506L8.05241 7.40581ZM8.05237 7.40581L8.05237 6.90581L7.64145 6.90581L7.56185 7.30895L8.05237 7.40581ZM8.05237 7.40583L8.05181 7.90583L8.46321 7.90629L8.5429 7.50269L8.05237 7.40583ZM6.89974 7.40454L6.89904 7.90454L6.89918 7.90454L6.89974 7.40454ZM4.59098 9.7133L4.09098 9.71398L4.09098 9.71402L4.59098 9.7133ZM4.59399 11.8035L4.09399 11.8042L4.09471 12.3027L4.59327 12.3035L4.59399 11.8035ZM8.05871 11.8085L8.05799 12.3085L8.46644 12.309L8.54851 11.9089L8.05871 11.8085ZM8.05872 11.8084L8.05944 11.3084L7.65099 11.3078L7.56891 11.708L8.05872 11.8084ZM12.4614 11.8148L12.4607 12.3148L12.9621 12.3155L12.9614 11.8141L12.4614 11.8148ZM12.455 7.41215L12.955 7.41142L12.9543 6.91287L12.4557 6.91215L12.455 7.41215ZM9.37414 7.40771L9.37486 6.90771L9.37342 7.90771L9.37414 7.40771ZM11.9496 3.94864L11.955 7.41288L12.955 7.41134L12.9496 3.94709L11.9496 3.94864ZM10.3587 4.44486L12.4489 4.44787L12.4503 3.44787L10.3602 3.44486L10.3587 4.44486ZM8.5507 6.2529C8.54926 5.25264 9.35848 4.44341 10.3587 4.44486L10.3602 3.44486C8.80651 3.44262 7.54846 4.70067 7.5507 6.25434L8.5507 6.2529ZM8.55241 7.40506L8.5507 6.25287L7.5507 6.25436L7.55241 7.40655L8.55241 7.40506ZM8.05241 6.90581H8.05237L8.05237 7.90581H8.05241L8.05241 6.90581ZM7.56185 7.30895L7.56184 7.30898L8.5429 7.50269L8.5429 7.50266L7.56185 7.30895ZM8.05293 6.90583L6.9003 6.90454L6.89918 7.90454L8.05181 7.90583L8.05293 6.90583ZM6.90044 6.90454C5.34683 6.90237 4.08887 8.16036 4.09098 9.71398L5.09098 9.71262C5.08962 8.71233 5.89883 7.90314 6.89904 7.90454L6.90044 6.90454ZM4.09098 9.71402L4.09399 11.8042L5.09399 11.8027L5.09098 9.71258L4.09098 9.71402ZM4.59327 12.3035L8.05799 12.3085L8.05943 11.3085L4.59471 11.3035L4.59327 12.3035ZM8.54851 11.9089L8.54852 11.9089L7.56891 11.708L7.56891 11.708L8.54851 11.9089ZM8.05799 12.3084L12.4607 12.3148L12.4621 11.3148L8.05944 11.3084L8.05799 12.3084ZM12.9614 11.8141L12.955 7.41142L11.955 7.41287L11.9614 11.8155L12.9614 11.8141ZM12.4557 6.91215L9.37486 6.90771L9.37342 7.90771L12.4543 7.91215L12.4557 6.91215ZM12.4557 6.91211L9.37486 6.90771L9.37343 7.90771L12.4543 7.91211L12.4557 6.91211Z" fill="white" mask="url(#path-6-inside-3_0_29504)"/>
<mask id="path-8-inside-4_0_29504" fill="white">
<path fill-rule="evenodd" clip-rule="evenodd" d="M8.0586 11.5729L4.59435 11.5782L4.59134 13.6684C4.5895 14.9453 5.62314 15.979 6.9001 15.9771L8.05229 15.9754V15.9755L8.05232 15.9755L8.05103 17.1281C8.04924 18.405 9.08283 19.4386 10.3598 19.4369L12.4499 19.4338L12.4549 15.9691L12.4549 15.9691L12.4613 11.5664L8.05863 11.5728L8.0542 14.6537L8.0586 11.5729Z"/>
</mask>
<path fill-rule="evenodd" clip-rule="evenodd" d="M8.0586 11.5729L4.59435 11.5782L4.59134 13.6684C4.5895 14.9453 5.62314 15.979 6.9001 15.9771L8.05229 15.9754V15.9755L8.05232 15.9755L8.05103 17.1281C8.04924 18.405 9.08283 19.4386 10.3598 19.4369L12.4499 19.4338L12.4549 15.9691L12.4549 15.9691L12.4613 11.5664L8.05863 11.5728L8.0542 14.6537L8.0586 11.5729Z" fill="#FF2E63"/>
<path d="M4.59435 11.5782L4.59358 11.0782L4.09507 11.079L4.09435 11.5775L4.59435 11.5782ZM8.0586 11.5729L8.55859 11.5736L8.55931 11.0721L8.05782 11.0729L8.0586 11.5729ZM4.59134 13.6684L4.09134 13.6677L4.09134 13.6677L4.59134 13.6684ZM6.9001 15.9771L6.90082 16.4771L6.90084 16.4771L6.9001 15.9771ZM8.05229 15.9754L8.55229 15.9754V15.4747L8.05155 15.4754L8.05229 15.9754ZM8.05229 15.9755L7.55229 15.9755L7.55229 16.3864L7.95544 16.466L8.05229 15.9755ZM8.05232 15.9755L8.55232 15.976L8.55278 15.5646L8.14917 15.4849L8.05232 15.9755ZM8.05103 17.1281L8.55103 17.1288L8.55103 17.1287L8.05103 17.1281ZM10.3598 19.4369L10.3605 19.9369L10.3605 19.9369L10.3598 19.4369ZM12.4499 19.4338L12.4507 19.9338L12.9492 19.9331L12.9499 19.4346L12.4499 19.4338ZM12.4549 15.9691L12.9549 15.9698L12.9555 15.5614L12.5554 15.4793L12.4549 15.9691ZM12.4549 15.9691L11.9549 15.9684L11.9543 16.3768L12.3544 16.4589L12.4549 15.9691ZM12.4613 11.5664L12.9613 11.5672L12.962 11.0657L12.4606 11.0664L12.4613 11.5664ZM8.05863 11.5728L8.05791 11.0728L7.55935 11.0736L7.55863 11.5721L8.05863 11.5728ZM8.0542 14.6537L7.5542 14.653L8.55419 14.6544L8.0542 14.6537ZM4.59512 12.0782L8.05937 12.0729L8.05782 11.0729L4.59358 11.0782L4.59512 12.0782ZM5.09134 13.6691L5.09435 11.5789L4.09435 11.5775L4.09134 13.6677L5.09134 13.6691ZM6.89938 15.4771C5.89912 15.4786 5.0899 14.6693 5.09134 13.6691L4.09134 13.6677C4.0891 15.2213 5.34715 16.4794 6.90082 16.4771L6.89938 15.4771ZM8.05155 15.4754L6.89936 15.4771L6.90084 16.4771L8.05303 16.4754L8.05155 15.4754ZM7.55229 15.9754V15.9755L8.55229 15.9755V15.9754L7.55229 15.9754ZM7.95544 16.466L7.95546 16.466L8.14917 15.4849L8.14915 15.4849L7.95544 16.466ZM7.55232 15.9749L7.55103 17.1275L8.55103 17.1287L8.55232 15.976L7.55232 15.9749ZM7.55103 17.1274C7.54886 18.681 8.80685 19.939 10.3605 19.9369L10.3591 18.9369C9.35881 18.9382 8.54963 18.129 8.55103 17.1288L7.55103 17.1274ZM10.3605 19.9369L12.4507 19.9338L12.4492 18.9338L10.3591 18.9369L10.3605 19.9369ZM12.9499 19.4346L12.9549 15.9698L11.9549 15.9684L11.9499 19.4331L12.9499 19.4346ZM12.5554 15.4793L12.5554 15.4793L12.3544 16.4589L12.3545 16.4589L12.5554 15.4793ZM12.9549 15.9698L12.9613 11.5672L11.9613 11.5657L11.9549 15.9684L12.9549 15.9698ZM12.4606 11.0664L8.05791 11.0728L8.05936 12.0728L12.462 12.0664L12.4606 11.0664ZM7.55863 11.5721L7.5542 14.653L8.55419 14.6544L8.55863 11.5736L7.55863 11.5721ZM7.5586 11.5721L7.5542 14.653L8.55419 14.6544L8.55859 11.5736L7.5586 11.5721Z" fill="white" mask="url(#path-8-inside-4_0_29504)"/>
</svg>
