<svg width="23" height="23" viewBox="0 0 23 23" fill="none" xmlns="http://www.w3.org/2000/svg">
<path fill-rule="evenodd" clip-rule="evenodd" d="M22.4 11.2C22.4 17.3856 17.3856 22.4 11.2 22.4C5.01441 22.4 0 17.3856 0 11.2C0 5.01441 5.01441 0 11.2 0C17.3856 0 22.4 5.01441 22.4 11.2ZM12.6 16.8C12.6 17.5732 11.9732 18.2 11.2 18.2C10.4268 18.2 9.8 17.5732 9.8 16.8C9.8 16.0268 10.4268 15.4 11.2 15.4C11.9732 15.4 12.6 16.0268 12.6 16.8ZM11.2 4.2C10.4268 4.2 9.8 4.82681 9.8 5.6V11.2C9.8 11.9732 10.4268 12.6 11.2 12.6C11.9732 12.6 12.6 11.9732 12.6 11.2V5.6C12.6 4.82681 11.9732 4.2 11.2 4.2Z" fill="white"/>
</svg>
