<svg width="16" height="16" viewBox="0 0 16 16" fill="none" xmlns="http://www.w3.org/2000/svg">
<g id="Group">
<path id="Vector" d="M8 0C3.57841 0 0 3.578 0 8C0 12.4215 3.578 16 8 16C12.4216 16 16 12.422 16 8C16 3.57847 12.422 0 8 0ZM8 14.8837C4.20431 14.8837 1.11628 11.7957 1.11628 8C1.11628 4.20428 4.20431 1.11628 8 1.11628C11.7957 1.11628 14.8837 4.20428 14.8837 8C14.8837 11.7957 11.7957 14.8837 8 14.8837Z" fill="#FF6961"/>
<path id="Vector_2" d="M8.00019 6.66997C7.52631 6.66997 7.18934 6.87009 7.18934 7.16494V11.177C7.18934 11.4297 7.52631 11.6824 8.00019 11.6824C8.453 11.6824 8.82153 11.4297 8.82153 11.177V7.16487C8.82153 6.87006 8.453 6.66997 8.00019 6.66997ZM8.00019 4.19531C7.51578 4.19531 7.13672 4.54281 7.13672 4.94297C7.13672 5.34316 7.51581 5.70119 8.00019 5.70119C8.47406 5.70119 8.85319 5.34316 8.85319 4.94297C8.85319 4.54281 8.47403 4.19531 8.00019 4.19531Z" fill="#FF6961"/>
</g>
</svg>
