<svg width="48" height="48" viewBox="0 0 48 48" fill="none" xmlns="http://www.w3.org/2000/svg">
    <path
        d="M31.9046 28.5554C31.5817 28.4188 31.2762 28.2566 31.0144 28.0176C30.2726 27.3431 29.7751 26.532 29.653 25.5331C29.6006 25.0636 29.6006 24.5855 29.714 24.1159C29.8624 23.4927 30.1679 22.9463 30.6304 22.4852C30.9271 22.195 31.2326 21.9132 31.5293 21.6229C31.7126 21.4436 31.7475 21.179 31.5904 20.9826C31.2588 20.5728 30.8922 20.1886 30.4559 19.8727C29.9148 19.4715 29.3039 19.1983 28.6406 19.0446C28.1693 18.9421 27.698 18.8824 27.2093 18.9251C26.3977 19.0019 25.621 19.2239 24.853 19.48C24.242 19.6764 23.6486 19.7361 23.0202 19.5568C22.2959 19.3434 21.5628 19.147 20.8035 19.0617C20.0268 18.9763 19.2762 19.0275 18.5431 19.3007C17.6268 19.6422 16.9199 20.2228 16.3526 20.9997C15.9337 21.5717 15.6195 22.195 15.41 22.8694C15.1657 23.6463 15.0522 24.4489 15.0522 24.8843C15.0173 26.0368 15.1308 26.8052 15.2966 27.5651C15.4275 28.1456 15.6108 28.7091 15.829 29.264C16.3439 30.5874 17.0159 31.8168 17.9322 32.9096C18.421 33.4901 18.9795 33.9938 19.6864 34.3012C20.1402 34.4976 20.6115 34.5744 21.0915 34.4976C21.5977 34.4207 22.0864 34.2414 22.5664 34.0621C22.8719 33.9512 23.1773 33.8487 23.5002 33.7975C24.0151 33.7121 24.5039 33.806 24.9926 33.9512C25.5075 34.1048 26.005 34.2841 26.5199 34.4207C27.2966 34.6256 28.0122 34.5317 28.693 34.1219C29.5395 33.6097 30.1679 32.884 30.7177 32.09C31.3286 31.1935 31.8435 30.2459 32.1751 29.2128C32.2799 28.9225 32.1839 28.6664 31.9046 28.5554Z"
        fill="black" />
    <path
        d="M23.5964 18.5665C23.6837 18.558 23.7797 18.5495 23.867 18.5409C24.4866 18.4897 25.0714 18.3616 25.595 18.0031C25.9877 17.7298 26.3281 17.414 26.6335 17.0554C27.0088 16.6114 27.323 16.1248 27.515 15.5784C27.6546 15.1857 27.6983 14.7673 27.7419 14.3575C27.7681 14.1099 27.7681 13.8709 27.7855 13.6233C27.8117 13.2391 27.5412 12.9317 27.1048 13.0342C26.6684 13.1366 26.2408 13.2647 25.8306 13.4525C25.211 13.7343 24.6437 14.0929 24.2074 14.6222C23.4219 15.5698 23.0815 16.6797 23.0117 17.8835C23.0117 17.9518 23.0117 18.0116 23.0117 18.0799C23.0117 18.4214 23.2474 18.6178 23.5964 18.5665Z"
        fill="black" />
</svg>
