<svg width="16" height="18" viewBox="0 0 16 18" fill="none" xmlns="http://www.w3.org/2000/svg">
<path d="M9.75179 13.4598C9.64679 13.5648 9.54929 13.7598 9.52679 13.9023L9.38429 14.9148C9.33179 15.2823 9.58679 15.5373 9.95429 15.4848L10.9668 15.3423C11.1093 15.3198 11.3118 15.2223 11.4093 15.1173L14.0643 12.4623C14.5218 12.0048 14.7393 11.4723 14.0643 10.7973C13.3968 10.1298 12.8643 10.3473 12.4068 10.8048L9.75179 13.4598Z" stroke="#FF2E63" stroke-width="1.125" stroke-linecap="round" stroke-linejoin="round"/>
<path d="M12.0244 11.1875C12.2494 11.9975 12.8794 12.6275 13.6894 12.8525" stroke="#FF2E63" stroke-width="1.125" stroke-linecap="round" stroke-linejoin="round"/>
<rect x="7.7998" y="7.7998" width="0.1" height="0.1" stroke="#252A34" stroke-width="2.55" stroke-linejoin="round"/>
<path d="M14.2876 9.07676C14.6965 6.98908 14.0923 4.74227 12.4749 3.12492C9.89296 0.542995 5.70686 0.542995 3.12492 3.12492C0.542995 5.70686 0.542995 9.89296 3.12492 12.4749L7.79992 17.1499C8.17277 16.7771 8.4524 16.4974 8.63882 16.311" stroke="#252A34" stroke-width="1.2" stroke-linecap="round" stroke-linejoin="round"/>
</svg>
