<svg width="48" height="48" viewBox="0 0 48 48" fill="none" xmlns="http://www.w3.org/2000/svg">
    <path
        d="M19.2108 26.4819L18.5494 28.9508L16.1322 29.002C15.4098 27.6621 15 26.129 15 24.4999C15 22.9246 15.3831 21.439 16.0622 20.131H16.0627L18.2148 20.5255L19.1575 22.6647C18.9602 23.2399 18.8527 23.8574 18.8527 24.4999C18.8527 25.1973 18.9791 25.8655 19.2108 26.4819Z"
        fill="#FBBB00" />
    <path
        d="M33.8341 22.7253C33.9432 23.3 34.0001 23.8935 34.0001 24.5001C34.0001 25.1802 33.9286 25.8436 33.7924 26.4836C33.3299 28.6613 32.1215 30.5628 30.4476 31.9085L30.4471 31.908L27.7364 31.7697L27.3528 29.3748C28.4636 28.7234 29.3316 27.704 29.7889 26.4836H24.709V22.7253H29.863H33.8341Z"
        fill="#518EF8" />
    <path
        d="M30.447 31.9079L30.4476 31.9084C28.8195 33.217 26.7514 34 24.5002 34C20.8823 34 17.7369 31.9778 16.1323 29.002L19.211 26.4819C20.0132 28.6231 22.0787 30.1473 24.5002 30.1473C25.541 30.1473 26.516 29.8659 27.3528 29.3747L30.447 31.9079Z"
        fill="#28B446" />
    <path
        d="M30.5636 17.1871L27.486 19.7067C26.6201 19.1654 25.5964 18.8527 24.4998 18.8527C22.0235 18.8527 19.9194 20.4468 19.1573 22.6647L16.0625 20.131H16.062C17.6431 17.0827 20.8282 15 24.4998 15C26.8048 15 28.9183 15.8211 30.5636 17.1871Z"
        fill="#F14336" />
</svg>
