<svg width="56" height="56" viewBox="0 0 56 56" fill="none" xmlns="http://www.w3.org/2000/svg">
<circle cx="28" cy="28" r="28" fill="#F1F4F6"/>
<circle cx="28" cy="28" r="5" fill="#08D9D6"/>
<path d="M22.35 20.93C21.96 20.5422 21.33 20.5422 20.94 20.93C17.0362 24.835 17.0362 31.165 20.94 35.07C21.1263 35.2547 21.3777 35.3588 21.64 35.36C21.9058 35.3615 22.1613 35.2571 22.35 35.07C22.5393 34.8822 22.6458 34.6266 22.6458 34.36C22.6458 34.0933 22.5393 33.8377 22.35 33.65C19.2349 30.5273 19.2349 25.4726 22.35 22.35C22.5393 22.1622 22.6458 21.9066 22.6458 21.64C22.6458 21.3733 22.5393 21.1177 22.35 20.93Z" fill="#252A34"/>
<path d="M35.06 20.93C34.67 20.5422 34.04 20.5422 33.65 20.93C33.4607 21.1177 33.3542 21.3733 33.3542 21.64C33.3542 21.9066 33.4607 22.1622 33.65 22.35C36.7651 25.4726 36.7651 30.5273 33.65 33.65C33.4607 33.8377 33.3542 34.0933 33.3542 34.36C33.3542 34.6266 33.4607 34.8822 33.65 35.07C33.8387 35.2571 34.0942 35.3615 34.36 35.36C34.6223 35.3588 34.8737 35.2547 35.06 35.07C38.9638 31.165 38.9638 24.835 35.06 20.93Z" fill="#252A34"/>
<path d="M16 28.0002C15.9928 24.8167 17.2605 21.7629 19.52 19.5202C19.9121 19.1281 19.9121 18.4924 19.52 18.1002C19.1279 17.7081 18.4921 17.7081 18.1 18.1002C15.4742 20.7258 13.999 24.287 13.999 28.0002C13.999 31.7135 15.4742 35.2747 18.1 37.9002C18.2878 38.0896 18.5434 38.196 18.81 38.196C19.0766 38.196 19.3322 38.0896 19.52 37.9002C19.7093 37.7125 19.8158 37.4569 19.8158 37.1902C19.8158 36.9236 19.7093 36.668 19.52 36.4802C17.2605 34.2376 15.9928 31.1838 16 28.0002Z" fill="#252A34"/>
<path d="M37.9 18.0998C37.6463 17.8461 37.2766 17.7471 36.9301 17.8399C36.5836 17.9327 36.313 18.2034 36.2201 18.5499C36.1273 18.8964 36.2263 19.2661 36.48 19.5198C38.7395 21.7714 40.0095 24.83 40.0095 28.0198C40.0095 31.2096 38.7395 34.2682 36.48 36.5198C36.2907 36.7075 36.1842 36.9631 36.1842 37.2298C36.1842 37.4964 36.2907 37.752 36.48 37.9398C36.6678 38.1291 36.9234 38.2356 37.19 38.2356C37.4566 38.2356 37.7122 38.1291 37.9 37.9398C40.5258 35.3142 42.001 31.7531 42.001 28.0398C42.001 24.3265 40.5258 20.7653 37.9 18.1398V18.0998Z" fill="#252A34"/>
</svg>
