<svg width="48" height="48" viewBox="0 0 48 48" fill="none" xmlns="http://www.w3.org/2000/svg">
    <path
        d="M36 16.3674C35.1166 16.7697 34.1678 17.0404 33.1718 17.1625C34.189 16.5377 34.969 15.5486 35.3363 14.3692C34.3856 14.9475 33.3315 15.3678 32.2091 15.595C31.3109 14.6134 30.0316 14 28.6157 14C25.8964 14 23.6922 16.2613 23.6922 19.049C23.6922 19.4446 23.7365 19.8308 23.8195 20.1991C19.7277 19.9889 16.1002 17.9784 13.6707 14.9229C13.248 15.6688 13.0052 16.5359 13.0052 17.4625C13.0052 19.2137 13.8738 20.7594 15.1946 21.6643C14.3879 21.6378 13.6282 21.4107 12.9646 21.033C12.9646 21.0548 12.9646 21.0746 12.9646 21.0964C12.9646 23.5433 14.6611 25.5841 16.9143 26.0469C16.5017 26.1624 16.066 26.224 15.6165 26.224C15.2999 26.224 14.9907 26.1918 14.6907 26.134C15.3174 28.1398 17.1358 29.6004 19.2902 29.6411C17.6056 30.9956 15.4826 31.803 13.175 31.803C12.7781 31.803 12.3858 31.7794 12 31.732C14.1793 33.1642 16.7666 34 19.5477 34C28.6046 34 33.5558 26.3063 33.5558 19.634C33.5558 19.4153 33.5512 19.1976 33.5419 18.9808C34.5047 18.2681 35.34 17.3792 36 16.3674Z"
        fill="#03A9F4" />
</svg>
