<svg width="11" height="12" viewBox="0 0 11 12" fill="none" xmlns="http://www.w3.org/2000/svg">
<path fill-rule="evenodd" clip-rule="evenodd" d="M5.5 7.63354C3.81682 7.63354 2.45274 6.37784 2.45274 4.82876C2.45274 3.27998 3.81682 2.02425 5.5 2.02425C7.18318 2.02425 8.54761 3.27998 8.54761 4.82876C8.54761 6.37784 7.18318 7.63354 5.5 7.63354ZM5.50697 7.92459e-06C2.47113 -0.0034604 -3.52203e-05 2.26787 0 5.06185C3.52203e-05 6.28903 0.474769 7.41413 1.26406 8.29061C1.29903 8.33952 4.03681 10.8696 5.0918 11.8439C5.31714 12.052 5.68286 12.052 5.9082 11.8439C6.96333 10.8695 9.70167 8.33881 9.73665 8.2896C10.5256 7.41348 11 6.2887 11 5.06179C11 2.26823 8.54152 0.00344384 5.50697 7.92459e-06Z" fill="#AEBECD"/>
</svg>
