<svg width="10" height="12" viewBox="0 0 10 12" fill="none" xmlns="http://www.w3.org/2000/svg">
<path fill-rule="evenodd" clip-rule="evenodd" d="M5 7.63354C3.46984 7.63354 2.22976 6.37784 2.22976 4.82876C2.22976 3.27997 3.46984 2.02424 5 2.02424C6.53016 2.02424 7.77056 3.27997 7.77056 4.82876C7.77056 6.37784 6.53016 7.63354 5 7.63354ZM5.00634 3.96683e-06C2.24648 -0.00346436 -3.20184e-05 2.26787 0 5.06185C3.20184e-05 6.28902 0.431609 7.41412 1.14914 8.29061C1.18094 8.33952 3.66983 10.8696 4.62891 11.8439C4.83376 12.052 5.16624 12.052 5.37109 11.8439C6.3303 10.8695 8.8197 8.33881 8.8515 8.2896C9.56871 7.41348 10 6.2887 10 5.06179C10 2.26823 7.76502 0.00343988 5.00634 3.96683e-06Z" fill="#6E7A8A"/>
</svg>
