<svg width="23" height="24" viewBox="0 0 23 24" fill="none" xmlns="http://www.w3.org/2000/svg">
<path fill-rule="evenodd" clip-rule="evenodd" d="M9.66411 6.90336C9.57591 6.61603 9.64784 6.30347 9.85277 6.0836L9.85277 6.0836C9.86668 6.06864 9.88113 6.05419 9.89609 6.04028L13.6579 2.27848C15.7317 0.204707 19.1077 0.204696 21.1815 2.27847C23.2553 4.35224 23.2553 7.72832 21.1815 9.8021L17.0237 13.9599C14.95 16.0336 11.5739 16.0336 9.50011 13.9599C9.28322 13.7486 9.19678 13.437 9.27385 13.1442C9.35092 12.8514 9.57958 12.6228 9.87237 12.5457C10.1652 12.4686 10.4768 12.555 10.688 12.7719C12.1242 14.2081 14.3996 14.2081 15.8358 12.7719L19.9936 8.61414C21.4298 7.17795 21.4298 4.90259 19.9936 3.46641C18.5574 2.03022 16.282 2.03023 14.8458 3.46642L11.084 7.22823C10.8797 7.44863 10.5732 7.54313 10.2802 7.4761C9.98721 7.40907 9.7523 7.19069 9.66411 6.90336ZM1.7785 21.6815C-0.29527 19.6077 -0.295266 16.2316 1.7785 14.1579L5.93629 10.0001C8.01006 7.92632 11.3861 7.9263 13.4599 10.0001C13.6771 10.2113 13.7637 10.523 13.6867 10.816C13.6097 11.109 13.3809 11.3378 13.0879 11.4148C12.7949 11.4919 12.4832 11.4052 12.272 11.188C10.8358 9.75183 8.56044 9.75183 7.12424 11.188L2.96645 15.3458C1.53025 16.782 1.53025 19.0573 2.96644 20.4935C4.40262 21.9297 6.67797 21.9297 8.11418 20.4935L11.876 16.7317C12.0872 16.5147 12.3989 16.4282 12.6917 16.5053C12.9846 16.5824 13.2133 16.8111 13.2904 17.1039C13.3674 17.3968 13.2809 17.7084 13.0639 17.9197L9.30211 21.6815C7.22835 23.7552 3.85227 23.7552 1.7785 21.6815Z" fill="#252A34"/>
</svg>
