<svg width="26" height="25" viewBox="0 0 26 25" fill="none" xmlns="http://www.w3.org/2000/svg">
<circle cx="13" cy="12" r="12" stroke="#6E7A8A" stroke-width="0.5"/>
<path fill-rule="evenodd" clip-rule="evenodd" d="M13.5 13.3613C12.1229 13.3613 11.0068 12.3149 11.0068 11.024C11.0068 9.73331 12.1229 8.68687 13.5 8.68687C14.8771 8.68687 15.9935 9.73331 15.9935 11.024C15.9935 12.3149 14.8771 13.3613 13.5 13.3613ZM13.5057 7.00001C11.0218 6.99712 8.99997 8.88989 9 11.2182C9.00003 12.2409 9.38845 13.1784 10.0342 13.9088C10.0628 13.9496 12.3028 16.058 13.166 16.8699C13.3504 17.0434 13.6496 17.0434 13.834 16.8699C14.6973 16.0579 16.9377 13.949 16.9663 13.908C17.6118 13.1779 18 12.2406 18 11.2182C18 8.89019 15.9885 7.00287 13.5057 7.00001Z" fill="#6E7A8A"/>
</svg>
