<svg width="19" height="20" viewBox="0 0 19 20" fill="none" xmlns="http://www.w3.org/2000/svg">
<path fill-rule="evenodd" clip-rule="evenodd" d="M7.37182 6.94064C7.37182 7.30594 7.40839 7.67123 7.48152 8.03653C6.47229 7.97565 5.61663 7.55708 4.91455 6.78082C4.21247 6.00457 3.86143 5.08371 3.86143 4.01826C3.86143 2.90715 4.23807 1.95967 4.99134 1.1758C5.74461 0.391933 6.65512 0 7.72286 0C8.46882 0 9.15262 0.205479 9.77425 0.616438C10.3959 1.0274 10.8676 1.57534 11.1894 2.26027C10.6628 2.3516 10.1582 2.53425 9.67552 2.80822C9.48537 2.45814 9.21478 2.17656 8.86374 1.96347C8.5127 1.75038 8.13241 1.64384 7.72286 1.64384C7.09392 1.64384 6.55639 1.87595 6.11028 2.34018C5.66416 2.80441 5.44111 3.36377 5.44111 4.01826C5.44111 4.61187 5.6276 5.13318 6.00058 5.58219C6.37356 6.0312 6.83795 6.29376 7.39376 6.36986C7.37914 6.55251 7.37182 6.74277 7.37182 6.94064ZM14.6559 9.79452C13.9099 10.5708 13.0031 10.9589 11.9353 10.9589C10.8676 10.9589 9.95708 10.567 9.20381 9.7831C8.45054 8.99924 8.0739 8.05175 8.0739 6.94064C8.0739 5.82953 8.45054 4.88204 9.20381 4.09817C9.95708 3.31431 10.8676 2.92237 11.9353 2.92237C13.0031 2.92237 13.9136 3.31431 14.6669 4.09817C15.4201 4.88204 15.7968 5.82953 15.7968 6.94064C15.7968 8.05175 15.4165 9.00304 14.6559 9.79452ZM11.9353 10.9589C13.1201 10.9589 14.2463 11.2253 15.3141 11.758C14.5243 11.9102 13.8075 12.2374 13.164 12.7397C12.7544 12.6484 12.3449 12.6027 11.9353 12.6027C10.2386 12.6027 8.79061 13.2268 7.59122 14.4749C6.39184 15.723 5.79215 17.2298 5.79215 18.9954C5.79215 19.2237 5.71536 19.4178 5.56178 19.5776C5.4082 19.7374 5.22171 19.8174 5.00231 19.8174C4.78291 19.8174 4.59642 19.7374 4.44284 19.5776C4.28926 19.4178 4.21247 19.2237 4.21247 18.9954C4.21247 16.7732 4.96574 14.8782 6.47229 13.3105C7.97883 11.7428 9.79985 10.9589 11.9353 10.9589ZM11.9353 9.31507C11.3064 9.31507 10.7689 9.08295 10.3227 8.61872C9.87664 8.15449 9.65358 7.59513 9.65358 6.94064C9.65358 6.28615 9.87664 5.72679 10.3227 5.26256C10.7689 4.79833 11.3064 4.56621 11.9353 4.56621C12.5643 4.56621 13.1018 4.79833 13.5479 5.26256C13.994 5.72679 14.2171 6.28615 14.2171 6.94064C14.2171 7.59513 13.9904 8.1583 13.537 8.63014C13.0982 9.08676 12.5643 9.31507 11.9353 9.31507ZM1.34931 16.6553C1.19573 16.8151 1.00924 16.895 0.789838 16.895C0.570439 16.895 0.383949 16.8151 0.23037 16.6553C0.0767898 16.4954 0 16.3014 0 16.0731C0 14.6423 0.332756 13.3181 0.998268 12.1005C1.66378 10.8828 2.57063 9.91248 3.71882 9.1895C4.86701 8.46651 6.12856 8.08219 7.50346 8.03653C7.6351 8.64536 7.87644 9.20091 8.22748 9.7032C8.05196 9.68798 7.88376 9.68037 7.72286 9.68037C6.02617 9.68037 4.57814 10.3044 3.37875 11.5525C2.17937 12.8006 1.57968 14.3075 1.57968 16.0731C1.57968 16.3014 1.50289 16.4954 1.34931 16.6553ZM16.0491 19.7603C15.8955 19.9201 15.709 20 15.4896 20C15.2702 20 15.0837 19.9201 14.9301 19.7603C14.7766 19.6005 14.6998 19.4064 14.6998 19.1781V17.1689H12.7691C12.5497 17.1689 12.3632 17.089 12.2096 16.9292C12.056 16.7694 11.9792 16.5753 11.9792 16.347C11.9792 16.1187 12.056 15.9247 12.2096 15.7648C12.3632 15.605 12.5497 15.5251 12.7691 15.5251H14.6998V13.516C14.6998 13.2877 14.7766 13.0936 14.9301 12.9338C15.0837 12.774 15.2702 12.6941 15.4896 12.6941C15.709 12.6941 15.8955 12.774 16.0491 12.9338C16.2027 13.0936 16.2794 13.2877 16.2794 13.516V15.5251H18.2102C18.4296 15.5251 18.6161 15.605 18.7696 15.7648C18.9232 15.9247 19 16.1187 19 16.347C19 16.5753 18.9232 16.7694 18.7696 16.9292C18.6161 17.089 18.4296 17.1689 18.2102 17.1689H16.2794V19.1781C16.2794 19.4064 16.2027 19.6005 16.0491 19.7603Z" fill="#252A34"/>
</svg>
