<svg width="17" height="12" viewBox="0 0 17 12" fill="none" xmlns="http://www.w3.org/2000/svg">
<rect x="0.498535" width="15.84" height="11.52" rx="1.44" fill="#AEBECD"/>
<path fill-rule="evenodd" clip-rule="evenodd" d="M7.42692 2.97358L11.6336 5.15725V5.15723C11.8719 5.2826 12.0183 5.51194 12.0183 5.75992C12.0183 6.00777 11.8719 6.2371 11.6336 6.36261L7.42692 8.54629C7.26757 8.62878 7.08092 8.65803 6.89984 8.6289C6.71875 8.59978 6.55505 8.51411 6.43768 8.38702C6.32031 8.26005 6.25673 8.09981 6.25836 7.93481V3.58494C6.25673 3.41994 6.32031 3.25982 6.43768 3.13273C6.55505 3.00575 6.71875 2.91997 6.89984 2.89084C7.08092 2.86172 7.26757 2.89109 7.42692 2.97358ZM7.81643 4.79034V6.72944L9.68613 5.75118L7.81643 4.79034Z" fill="white"/>
</svg>
