<svg width="56" height="56" viewBox="0 0 56 56" fill="none" xmlns="http://www.w3.org/2000/svg">
<circle cx="28" cy="28" r="28" fill="#F1F4F6"/>
<path fill-rule="evenodd" clip-rule="evenodd" d="M35.8947 25.6627C35.8947 26.0816 35.5816 26.4211 35.196 26.4211H20.804C20.4184 26.4211 20.1053 26.0816 20.1053 25.6627V25.0731C20.1053 24.6552 20.4184 24.3158 20.804 24.3158H35.196C35.5816 24.3158 35.8947 24.6552 35.8947 25.0731V25.6627ZM27.4737 34.8801C27.4737 35.4401 27.0559 35.8947 26.5413 35.8947H22.5145C22.0348 35.8947 21.6339 35.4992 21.5864 34.9799L21.1609 30.3034C21.1254 29.9153 21.4055 29.5789 21.763 29.5789H26.5413C27.0559 29.5789 27.4737 30.0336 27.4737 30.5935V34.8801ZM20.1053 21.9156C20.1053 21.4964 20.4168 21.1579 20.8004 21.1579H34.147C34.5305 21.1579 34.8421 21.4964 34.8421 21.9156V22.5055C34.8421 22.9237 34.5305 23.2632 34.147 23.2632H20.8004C20.4168 23.2632 20.1053 22.9237 20.1053 22.5055V21.9156ZM37.3597 19.2239C37.2978 18.53 36.7582 18 36.1127 18H19.8873C19.2418 18 18.7022 18.53 18.6394 19.2239L18.1474 24.7123C17.9509 26.899 17.9509 29.1011 18.1474 31.2878L18.6394 36.7761C18.7022 37.4701 19.2418 38 19.8873 38H36.1127C36.7582 38 37.2978 37.4701 37.3597 36.7761L37.8525 31.2878C38.0492 29.1011 38.0492 26.899 37.8525 24.7123L37.3597 19.2239Z" fill="#252A34"/>
<path fill-rule="evenodd" clip-rule="evenodd" d="M27.4737 34.8803C27.4737 35.4403 27.0559 35.8949 26.5413 35.8949H22.5145C22.0348 35.8949 21.6339 35.4994 21.5864 34.9801L21.1609 30.3035C21.1254 29.9155 21.4055 29.5791 21.763 29.5791H26.5413C27.0559 29.5791 27.4737 30.0337 27.4737 30.5937V34.8803Z" fill="#08D9D6"/>
</svg>
