<svg width="48" height="48" viewBox="0 0 48 48" fill="none" xmlns="http://www.w3.org/2000/svg">
<circle cx="24" cy="24" r="24" fill="#F1F4F6"/>
<path fill-rule="evenodd" clip-rule="evenodd" d="M24 16C19.5821 16 16 19.5814 16 24C16 28.4179 19.5821 32 24 32C28.4186 32 32 28.4179 32 24C32 19.5814 28.4186 16 24 16ZM24 18.3917C25.4616 18.3917 26.6464 19.5765 26.6464 21.0381C26.6464 22.4996 25.4616 23.6845 24 23.6845C22.5384 23.6845 21.3536 22.4996 21.3536 21.0381C21.3536 19.5765 22.5384 18.3917 24 18.3917ZM20.1754 28.4986C21.2404 29.4098 22.5964 29.9099 23.9981 29.9085C25.4002 29.9104 26.7568 29.4103 27.8221 28.4986C28.073 28.2842 28.217 27.9706 28.217 27.641C28.2176 26.9316 27.9355 26.2513 27.433 25.7506C26.9305 25.2499 26.2492 24.9702 25.5398 24.9734H22.4608C21.751 24.97 21.0691 25.2495 20.5658 25.7501C20.0626 26.2507 19.7795 26.9311 19.7792 27.641C19.7794 27.971 19.9242 28.2844 20.1754 28.4986Z" fill="#CCD4DB"/>
</svg>
