<svg width="375" height="281" viewBox="0 0 375 281" fill="none" xmlns="http://www.w3.org/2000/svg">
<path fill-rule="evenodd" clip-rule="evenodd" d="M0 8.49536C0 3.80351 3.8035 0 8.49536 0L366.505 0C371.197 0 375 3.8035 375 8.49536V272.505C375 277.197 371.197 281 366.505 281H8.49536C3.80351 281 0 277.197 0 272.505L0 8.49536Z" fill="#F1F4F6"/>
<g opacity="0.45557">
<path opacity="0.282078" fill-rule="evenodd" clip-rule="evenodd" d="M187.882 137.147L160.527 164.581L139 142.991L151.987 129.967C159.921 122.011 172.784 122.011 180.718 129.967L187.882 137.147Z" fill="#252A34"/>
<path fill-rule="evenodd" clip-rule="evenodd" d="M215.236 164.581L187.882 192.015L160.527 164.581L187.882 137.147L215.236 164.581Z" fill="#252A34"/>
<path opacity="0.550739" fill-rule="evenodd" clip-rule="evenodd" d="M236.758 142.992L215.236 164.58L187.882 137.148L195.04 129.968C202.974 122.011 215.837 122.011 223.772 129.968L236.758 142.992Z" fill="#252A34"/>
</g>
</svg>
