<svg width="10" height="10" viewBox="0 0 10 10" fill="none" xmlns="http://www.w3.org/2000/svg">
<path fill-rule="evenodd" clip-rule="evenodd" d="M0 5.00066C0 2.24 2.24102 0 5 0C7.75898 0 10 2.24 10 4.99934C10 7.75868 7.75898 10 5 10C2.24102 10 0 7.76132 0 5.00066ZM0.770448 4.99934C0.770448 7.33292 2.66558 9.23077 5 9.23077H5.00022C7.33341 9.23077 9.23099 7.33297 9.23219 4.99934C9.23219 2.66455 7.33464 0.767912 5.00132 0.767912C2.66684 0.767912 0.770448 2.66462 0.770448 4.99934Z" fill="#6E7A8A"/>
<path fill-rule="evenodd" clip-rule="evenodd" d="M3.04369 3.23658C3.36201 2.51002 4.08856 2.00003 4.9352 2.00003L4.93518 2C6.07513 2 7 2.92487 7 4.06482C7 5.02145 6.34505 5.82636 5.46178 6.05792C5.45678 6.11802 5.45678 6.17127 5.45678 6.20463V6.22125V6.24462V6.24799C5.44339 6.52294 5.21509 6.74462 4.93679 6.74462C4.6485 6.74462 4.41519 6.50969 4.41519 6.22302V6.21802C4.41519 6.18802 4.41519 6.04306 4.42855 5.89135C4.44183 5.48147 4.74023 5.13644 5.14187 5.06483H5.1385L5.14512 5.06309L5.14687 5.06321C5.6085 4.96649 5.95678 4.55485 5.95678 4.06322C5.95678 3.49826 5.49854 3.04162 4.93518 3.04162C4.51691 3.04162 4.15689 3.29494 3.99855 3.65646C3.88359 3.91814 3.57693 4.03811 3.312 3.92314C3.04869 3.80817 2.92861 3.50151 3.04369 3.23658ZM4.93499 8.2114C5.22304 8.2114 5.45659 7.97787 5.45659 7.6898C5.45659 7.40175 5.22305 7.1682 4.93499 7.1682C4.64693 7.1682 4.41339 7.40175 4.41339 7.6898C4.41339 7.97785 4.64692 8.2114 4.93499 8.2114Z" fill="#6E7A8A"/>
</svg>
