<svg width="20" height="20" viewBox="0 0 20 20" fill="none" xmlns="http://www.w3.org/2000/svg">
<path d="M18.6464 19.3536C18.8417 19.5488 19.1583 19.5488 19.3536 19.3536C19.5488 19.1583 19.5488 18.8417 19.3536 18.6464L18.6464 19.3536ZM15.0105 14.3033C14.8152 14.1081 14.4986 14.1081 14.3033 14.3033C14.1081 14.4986 14.1081 14.8152 14.3033 15.0105L15.0105 14.3033ZM14.6569 14.6569L15.0104 15.0105L15.0105 15.0104L14.6569 14.6569ZM19.3536 18.6464L15.0105 14.3033L14.3033 15.0105L18.6464 19.3536L19.3536 18.6464ZM15.0105 15.0104C16.5481 13.4727 17.5 11.347 17.5 9H16.5C16.5 11.0712 15.6611 12.9455 14.3033 14.3034L15.0105 15.0104ZM17.5 9C17.5 4.30558 13.6944 0.5 9 0.5V1.5C13.1422 1.5 16.5 4.85786 16.5 9H17.5ZM9 0.5C4.30558 0.5 0.5 4.30558 0.5 9H1.5C1.5 4.85786 4.85786 1.5 9 1.5V0.5ZM0.5 9C0.5 13.6944 4.30558 17.5 9 17.5V16.5C4.85786 16.5 1.5 13.1422 1.5 9H0.5ZM9 17.5C11.347 17.5 13.4727 16.5481 15.0104 15.0105L14.3034 14.3033C12.9455 15.6611 11.0712 16.5 9 16.5V17.5Z" fill="#292929"/>
</svg>
