<svg width="18" height="18" viewBox="0 0 18 18" fill="none" xmlns="http://www.w3.org/2000/svg">
<circle cx="9" cy="9" r="8.75" fill="#F1F4F6" stroke="white" stroke-width="0.5"/>
<path d="M12.7765 8.78728C12.9792 8.58154 13.0508 8.27959 12.9633 7.99939C12.876 7.71908 12.6477 7.51862 12.3676 7.47622L10.6381 7.21447C10.5503 7.20112 10.4744 7.14372 10.4352 7.06091L9.66173 5.42837C9.5365 5.16414 9.28292 5 8.99998 5C8.71705 5 8.46347 5.16414 8.33823 5.42837C8.33823 5.42838 7.56478 7.06089 7.56478 7.06089C7.52553 7.14373 7.44967 7.20114 7.36202 7.21445L5.63242 7.47621C5.3523 7.51862 5.12403 7.71908 5.03674 7.99924C4.94919 8.27959 5.02074 8.58156 5.22341 8.78723L6.47494 10.0581C6.53842 10.1225 6.56739 10.2153 6.55244 10.3063L6.25694 12.1007C6.20919 12.3912 6.32167 12.6792 6.5505 12.8524C6.77938 13.0256 7.07719 13.048 7.32775 12.9109L8.87466 12.0638C8.95312 12.0208 9.04683 12.0208 9.12522 12.0637L10.6722 12.9109C10.9228 13.048 11.2206 13.0256 11.4495 12.8524C11.6783 12.6792 11.7908 12.3912 11.7431 12.1007L11.4475 10.3063C11.4326 10.2153 11.4615 10.1225 11.5251 10.058L12.7765 8.78728Z" fill="#FF2E63"/>
</svg>
