<svg width="18" height="20" viewBox="0 0 18 20" fill="none" xmlns="http://www.w3.org/2000/svg">
<path fill-rule="evenodd" clip-rule="evenodd" d="M17.6158 7.53885L9.74081 0.648226C9.31669 0.277089 8.68331 0.277089 8.25919 0.648226L0.384187 7.53885C0.14004 7.75248 0 8.06112 0 8.38546V18C0 18.6214 0.503685 19.125 1.125 19.125H5.625C6.24632 19.125 6.75 18.6214 6.75 18V13.5C6.75 12.8787 7.25366 12.375 7.875 12.375H10.125C10.7463 12.375 11.25 12.8787 11.25 13.5V18C11.25 18.6214 11.7537 19.125 12.375 19.125H16.875C17.4963 19.125 18 18.6214 18 18V8.38546C18 8.06112 17.8599 7.75248 17.6158 7.53885Z" fill="#FF2E63"/>
</svg>
