<svg width="22" height="17" viewBox="0 0 22 17" fill="none" xmlns="http://www.w3.org/2000/svg">
<path fill-rule="evenodd" clip-rule="evenodd" d="M20.4556 5.85497C21.1815 6.38807 21.1815 7.72102 20.4556 8.25412L16.3881 11.2414L12.6904 13.9574C11.7996 14.6115 10.6862 13.7939 10.6862 12.4853C10.6862 11.1288 9.8204 10.1586 8.7602 10.3043C5.54917 10.7456 3.14145 13.1712 1.56388 15.413C0.905764 16.3482 -0.279906 15.4408 0.0600232 14.2625C1.52358 9.18877 5.07083 5.38461 9.3759 4.53618C10.1298 4.38763 10.6862 3.56335 10.6862 2.59282V1.92857C10.6862 0.484571 11.9149 -0.417826 12.8979 0.304173L16.3881 2.86767L20.4556 5.85497Z" stroke="#667490" stroke-width="0.84"/>
</svg>
