<svg width="16" height="16" viewBox="0 0 16 16" fill="none" xmlns="http://www.w3.org/2000/svg">
<path fill-rule="evenodd" clip-rule="evenodd" d="M7.99854 0.938477C3.85674 0.938477 0.498535 4.29608 0.498535 8.43848C0.498535 12.5803 3.85674 15.9385 7.99854 15.9385C12.1409 15.9385 15.4985 12.5803 15.4985 8.43848C15.4985 4.29608 12.1409 0.938477 7.99854 0.938477ZM7.99854 3.18068C9.36875 3.18068 10.4795 4.29146 10.4795 5.66168C10.4795 7.03189 9.36875 8.14268 7.99854 8.14268C6.62832 8.14268 5.51754 7.03189 5.51754 5.66168C5.51754 4.29146 6.62832 3.18068 7.99854 3.18068ZM4.41294 12.6559C5.41143 13.5102 6.68264 13.979 7.99674 13.9777C9.31127 13.9795 10.583 13.5106 11.5817 12.6559C11.8169 12.4549 11.9519 12.1609 11.9519 11.8519C11.9526 11.1869 11.6881 10.549 11.217 10.0796C10.7459 9.61025 10.1071 9.34804 9.44213 9.35108H6.55554C5.89009 9.34789 5.2508 9.60991 4.77902 10.0792C4.30724 10.5485 4.04185 11.1864 4.04154 11.8519C4.04171 12.1613 4.17744 12.4551 4.41294 12.6559Z" fill="#AEBECD"/>
</svg>
