<svg width="162" height="169" viewBox="0 0 162 169" fill="none" xmlns="http://www.w3.org/2000/svg">
<path d="M81 169C125.663 169 161.869 132.793 161.869 88.1306C161.869 43.4678 125.663 7.26147 81 7.26147C36.3372 7.26147 0.130859 43.4678 0.130859 88.1306C0.130859 132.793 36.3372 169 81 169Z" fill="#252A34"/>
<path d="M68.0592 125.075C72.2346 125.075 76.0814 127.174 78.3493 130.692C78.3769 130.735 78.414 130.771 78.4579 130.798C78.5017 130.824 78.551 130.839 78.6019 130.843C78.6528 130.847 78.7039 130.839 78.7511 130.82C78.7984 130.8 78.8405 130.77 78.8742 130.732C82.274 126.886 87.1618 124.681 92.2842 124.681C94.0297 124.681 95.7157 124.936 97.3117 125.405L91.4211 110.305H70.578L64.623 125.569C65.7389 125.241 66.896 125.075 68.0592 125.075Z" fill="#D9EAFC"/>
<path d="M73.2952 110.305H70.578L64.623 125.569C65.568 125.295 66.5426 125.135 67.5258 125.094L73.2952 110.305Z" fill="#AEC1ED"/>
<path d="M61.7192 140.677C61.7257 140.72 61.7407 140.761 61.7633 140.799C61.7859 140.836 61.8156 140.868 61.8507 140.894C61.8859 140.92 61.9257 140.938 61.9681 140.949C62.0104 140.959 62.0544 140.961 62.0974 140.954C63.2606 140.768 64.4365 140.674 65.6144 140.672C71.2584 140.672 76.6423 142.793 80.7752 146.643C80.8363 146.7 80.9168 146.732 81.0004 146.732C81.0812 146.732 81.1621 146.702 81.2255 146.643C85.3581 142.793 90.7423 140.672 96.3863 140.672C97.5412 140.672 98.7249 140.767 99.9033 140.954C99.9464 140.961 99.9904 140.96 100.033 140.949C100.075 140.939 100.115 140.92 100.15 140.894C100.221 140.842 100.268 140.764 100.282 140.677C100.892 136.571 102.437 132.683 104.755 129.289C101.494 126.229 97.1105 124.351 92.2851 124.351C86.8464 124.351 81.9672 126.736 78.6278 130.514C76.3912 127.044 72.4956 124.745 68.0603 124.745C63.8059 124.745 60.0483 126.861 57.7744 130.096C59.7978 133.294 61.1571 136.892 61.7192 140.677Z" fill="#616B7E"/>
<path d="M62.0461 140.628C60.0597 127.256 48.5344 116.997 34.6103 116.997C24.944 116.997 16.4359 121.943 11.4702 129.44C19.0732 142.21 30.0949 152.703 43.2713 159.666C44.6804 149.907 52.3312 142.171 62.0461 140.628Z" fill="#383F4E"/>
<path d="M37.3804 120.408C44.4546 120.408 50.9393 122.917 56.005 127.088C50.9175 120.927 43.2247 116.997 34.6103 116.997C24.944 116.997 16.4359 121.943 11.4702 129.44C12.1261 130.54 12.808 131.625 13.5154 132.692C18.8359 125.257 27.5397 120.408 37.3804 120.408Z" fill="#191C24"/>
<path d="M127.389 116.997C113.465 116.997 101.94 127.257 99.9536 140.628C109.668 142.171 117.319 149.907 118.728 159.666C131.905 152.703 142.926 142.21 150.529 129.44C145.564 121.943 137.056 116.997 127.389 116.997Z" fill="#383F4E"/>
<path d="M129.067 117.049C128.509 117.015 127.949 116.998 127.389 116.997C113.465 116.997 101.94 127.257 99.9536 140.628C100.978 140.792 101.99 141.027 102.982 141.331C105.742 128.696 116.121 118.912 129.067 117.049Z" fill="#191C24"/>
<path d="M96.3859 140.342C90.4392 140.342 85.0328 142.644 81.0003 146.402C76.9677 142.644 71.5613 140.342 65.6147 140.342C54.2484 140.342 44.8461 148.741 43.27 159.671C54.5349 165.624 67.3723 169 81.0003 169C94.6282 169 107.466 165.624 118.731 159.671C117.154 148.741 107.752 140.342 96.3859 140.342Z" fill="#252A34"/>
<path d="M70.3344 143.149C73.3522 143.145 76.3423 143.724 79.1409 144.853C75.3704 142.024 70.6909 140.342 65.6147 140.342C54.2484 140.342 44.8461 148.741 43.27 159.671C44.6006 160.373 45.9506 161.038 47.3184 161.666C49.6313 151.078 59.053 143.149 70.3344 143.149Z" fill="#191C24"/>
<path d="M88.4365 110.305H83.446L84.0828 115.342C84.1704 115.989 84.5099 116.575 85.0275 116.973C85.5451 117.371 86.1988 117.548 86.8464 117.466C87.494 117.384 88.0831 117.05 88.4854 116.536C88.8878 116.022 89.0708 115.37 88.9947 114.721L88.4365 110.305ZM73.5645 110.305L72.2554 120.663C72.2113 121.012 72.242 121.366 72.3455 121.702C72.4489 122.038 72.6228 122.348 72.8555 122.612C73.0882 122.875 73.3743 123.086 73.6949 123.231C74.0155 123.375 74.3632 123.45 74.7148 123.449C75.3171 123.448 75.8984 123.228 76.3499 122.829C76.8015 122.43 77.0923 121.881 77.168 121.283L78.5556 110.305L73.5645 110.305Z" fill="#AEC1ED"/>
<path d="M55.6193 64.6017C55.6193 61.9099 55.7203 59.2254 55.9091 56.5603C47.9675 61.0325 42.4961 70.9956 42.4961 82.5302C42.4961 88.6221 44.0108 94.4318 46.8762 99.3312C47.0538 99.6349 47.335 99.8643 47.6682 99.9772C48.0013 100.09 48.3641 100.079 48.6897 99.9458C52.4555 98.4063 56.4799 97.6154 60.653 97.5824C57.3579 87.4398 55.6193 76.1128 55.6193 64.6017Z" fill="#FF2E63"/>
<path d="M46.2385 82.5302C46.2385 73.0031 49.9734 64.5518 55.7474 59.3775C55.7916 58.4365 55.8428 57.4971 55.9092 56.5603C47.9675 61.0325 42.4961 70.9956 42.4961 82.5302C42.4961 88.6221 44.0108 94.4318 46.8762 99.3312C47.0538 99.6349 47.335 99.8643 47.6682 99.9772C48.0013 100.09 48.3641 100.079 48.6897 99.9458C49.3105 99.6948 49.9391 99.4638 50.5748 99.2533C47.7384 94.3701 46.2385 88.5901 46.2385 82.5302Z" fill="#E12957"/>
<path d="M106.09 56.5603C106.282 59.2365 106.378 61.9186 106.38 64.6017C106.38 76.1125 104.642 87.4394 101.346 97.5824C105.52 97.6154 109.544 98.4063 113.31 99.9458C113.635 100.079 113.998 100.09 114.331 99.9771C114.664 99.8642 114.945 99.6348 115.123 99.3312C117.989 94.4318 119.503 88.6221 119.503 82.5302C119.503 70.9956 114.032 61.0325 106.09 56.5603ZM68.3608 101.375V108.985C68.3608 109.892 69.1035 110.635 70.0112 110.635H91.9888C92.8965 110.635 93.6392 109.892 93.6392 108.985V101.375H68.3608Z" fill="#FF2E63"/>
<path d="M73.9745 108.985V101.375H68.3608V108.985C68.3608 109.893 69.1035 110.635 70.0112 110.635H75.6249C74.7172 110.635 73.9745 109.893 73.9745 108.985Z" fill="#E12957"/>
<path d="M101.087 29.812H60.9136C57.2319 40.425 55.29 52.3705 55.29 64.6019C55.29 77.3172 57.3989 89.8156 61.3882 100.745C61.491 101.027 61.6777 101.27 61.9231 101.442C62.1686 101.613 62.4608 101.705 62.7604 101.705H99.2403C99.5398 101.705 99.8321 101.613 100.078 101.442C100.323 101.27 100.51 101.027 100.612 100.745C104.602 89.8156 106.711 77.3172 106.711 64.6019C106.711 52.3705 104.769 40.4253 101.087 29.812Z" fill="#EEF6FF"/>
<path d="M66.0661 100.745C62.0764 89.8156 59.9679 77.3172 59.9679 64.6019C59.9679 52.3705 61.9098 40.425 65.5914 29.812H60.9136C57.2319 40.425 55.29 52.3705 55.29 64.6019C55.29 77.3172 57.3989 89.8156 61.3882 100.745C61.491 101.027 61.6777 101.27 61.9231 101.442C62.1686 101.613 62.4608 101.705 62.7604 101.705H67.4382C67.1387 101.705 66.8464 101.613 66.601 101.442C66.3556 101.27 66.1688 101.027 66.0661 100.745Z" fill="#D9EAFC"/>
<path d="M71.4863 29.812V35.2893C71.4863 36.197 72.229 36.9397 73.1367 36.9397H88.8623C89.77 36.9397 90.5127 36.197 90.5127 35.2893V29.812H71.4863Z" fill="#FF2E63"/>
<path d="M75.2288 35.2893V29.812H71.4863V35.2893C71.4863 36.197 72.229 36.9397 73.1367 36.9397H76.8791C75.9714 36.9397 75.2288 36.197 75.2288 35.2893Z" fill="#E12957"/>
<path d="M80.9998 3.275e-07C80.6651 -0.000165278 80.3405 0.114743 80.0805 0.325457C72.7072 6.29624 66.4965 15.3536 62.1206 26.5185C61.6538 27.7167 61.213 28.9248 60.7983 30.1421H101.201C100.786 28.9248 100.345 27.7167 99.8786 26.5185C95.5028 15.3536 89.2923 6.29624 81.9187 0.325457C81.6588 0.114695 81.3344 -0.000223897 80.9998 3.275e-07Z" fill="#FF2E63"/>
<path d="M83.3387 1.5276C82.8739 1.11709 82.4006 0.716286 81.919 0.325457C81.651 0.108596 81.3256 0 80.9998 0C80.674 0 80.3485 0.108596 80.0805 0.325457C72.7072 6.29624 66.4965 15.3536 62.1206 26.5185C61.6538 27.7167 61.213 28.9248 60.7983 30.1421H65.4762C65.8908 28.9248 66.3317 27.7167 66.7985 26.5185C70.8908 16.0778 76.5873 7.48188 83.3387 1.5276Z" fill="#E12957"/>
<path d="M80.9998 76.5613C90.3006 76.5613 97.8404 69.0215 97.8404 59.7207C97.8404 50.4199 90.3006 42.8801 80.9998 42.8801C71.699 42.8801 64.1592 50.4199 64.1592 59.7207C64.1592 69.0215 71.699 76.5613 80.9998 76.5613Z" fill="#03B6B3"/>
<path d="M81.0006 70.5246C86.9673 70.5246 91.8043 65.6875 91.8043 59.7208C91.8043 53.754 86.9673 48.917 81.0006 48.917C75.0338 48.917 70.1968 53.754 70.1968 59.7208C70.1968 65.6875 75.0338 70.5246 81.0006 70.5246Z" fill="#08D9D6"/>
<path d="M74.1574 59.7213C74.1574 65.0114 77.9602 69.4107 82.981 70.3412C82.3387 70.46 81.6776 70.5254 81.0006 70.5254C75.0334 70.5254 70.1968 65.6881 70.1968 59.7213C70.1968 53.7544 75.0337 48.9175 81.0006 48.9175C81.6772 48.9175 82.3387 48.9828 82.981 49.1017C77.9602 50.0322 74.1574 54.4311 74.1574 59.7213Z" fill="#08D9D6"/>
<path d="M32.8544 58.9975C32.6693 58.9975 32.4883 58.9426 32.3343 58.8397C32.1804 58.7368 32.0604 58.5906 31.9896 58.4195C30.1468 53.9704 28.7882 52.6121 24.339 50.7693C24.1679 50.6986 24.0216 50.5786 23.9186 50.4247C23.8157 50.2707 23.7607 50.0897 23.7607 49.9045C23.7607 49.7193 23.8157 49.5383 23.9186 49.3843C24.0216 49.2304 24.1679 49.1104 24.339 49.0397C28.7885 47.1962 30.1468 45.8376 31.9896 41.3888C32.0605 41.2178 32.1804 41.0716 32.3344 40.9688C32.4883 40.8659 32.6693 40.811 32.8544 40.811C33.0395 40.811 33.2205 40.8659 33.3744 40.9688C33.5284 41.0716 33.6483 41.2178 33.7192 41.3888C35.5624 45.8376 36.921 47.1962 41.3701 49.0397C41.5411 49.1106 41.6873 49.2305 41.7901 49.3845C41.893 49.5384 41.9479 49.7194 41.9479 49.9045C41.9479 50.0896 41.893 50.2706 41.7901 50.4245C41.6873 50.5785 41.5411 50.6984 41.3701 50.7693C36.921 52.6118 35.5624 53.9704 33.7192 58.4195C33.6484 58.5906 33.5284 58.7368 33.3745 58.8397C33.2205 58.9426 33.0396 58.9975 32.8544 58.9975Z" fill="#08D9D6"/>
<path d="M33.8608 56.5475C32.018 52.0984 30.6594 50.7401 26.2103 48.8973C25.995 48.8082 25.8208 48.6418 25.7217 48.4309C25.2655 48.644 24.8045 48.8467 24.339 49.0389C24.1679 49.1097 24.0216 49.2296 23.9186 49.3835C23.8157 49.5375 23.7607 49.7185 23.7607 49.9037C23.7607 50.0889 23.8157 50.2699 23.9186 50.4239C24.0216 50.5778 24.1679 50.6978 24.339 50.7685C28.7882 52.6113 30.1468 53.9696 31.9896 58.4187C32.0605 58.5898 32.1804 58.7359 32.3344 58.8388C32.4883 58.9416 32.6693 58.9965 32.8544 58.9965C33.0395 58.9965 33.2205 58.9416 33.3744 58.8388C33.5284 58.7359 33.6483 58.5898 33.7192 58.4187C33.9113 57.9534 34.1139 57.4925 34.3269 57.0364C34.1162 56.937 33.95 56.7627 33.8608 56.5475Z" fill="#03B6B3"/>
<path d="M132.317 66.4789C132.155 66.4789 131.996 66.4306 131.86 66.3402C131.725 66.2498 131.619 66.1213 131.557 65.9709C129.937 62.0601 128.743 60.8662 124.833 59.2466C124.682 59.1842 124.554 59.0788 124.463 58.9435C124.373 58.8082 124.325 58.6491 124.325 58.4864C124.325 58.3237 124.373 58.1646 124.463 58.0293C124.554 57.894 124.682 57.7885 124.833 57.7262C128.744 56.1059 129.937 54.9116 131.557 51.0012C131.619 50.8509 131.725 50.7224 131.86 50.632C131.996 50.5416 132.155 50.4934 132.317 50.4934C132.48 50.4934 132.639 50.5416 132.774 50.632C132.91 50.7224 133.015 50.8509 133.078 51.0012C134.698 54.912 135.892 56.1059 139.803 57.7262C139.953 57.7884 140.082 57.8939 140.172 58.0292C140.263 58.1646 140.311 58.3237 140.311 58.4865C140.311 58.6493 140.263 58.8084 140.172 58.9437C140.082 59.079 139.953 59.1844 139.803 59.2466C135.892 60.8662 134.698 62.0601 133.078 65.9709C133.015 66.1213 132.91 66.2498 132.775 66.3402C132.639 66.4307 132.48 66.4789 132.317 66.4789Z" fill="white"/>
<path d="M133.202 64.3268C131.582 60.416 130.388 59.2221 126.477 57.6021C126.288 57.5238 126.135 57.3776 126.048 57.1921C125.647 57.3793 125.242 57.5575 124.832 57.7265C124.682 57.7888 124.554 57.8943 124.463 58.0296C124.373 58.1649 124.325 58.324 124.325 58.4867C124.325 58.6494 124.373 58.8085 124.463 58.9438C124.554 59.0791 124.682 59.1846 124.832 59.2469C128.744 60.8666 129.937 62.0605 131.557 65.9712C131.619 66.1215 131.725 66.25 131.86 66.3404C131.996 66.4308 132.155 66.479 132.317 66.479C132.48 66.479 132.639 66.4308 132.774 66.3404C132.91 66.25 133.015 66.1215 133.078 65.9712C133.246 65.5621 133.424 65.1568 133.612 64.7559C133.427 64.6688 133.281 64.5158 133.202 64.3268Z" fill="#D9EAFC"/>
<path d="M123.734 31.711C123.545 31.711 123.359 31.6547 123.202 31.5494C123.044 31.444 122.921 31.2943 122.848 31.1192C120.961 26.5621 119.57 25.1708 115.013 23.2838C114.837 23.2113 114.687 23.0884 114.582 22.9307C114.477 22.7731 114.42 22.5877 114.42 22.398C114.42 22.2083 114.477 22.0229 114.582 21.8653C114.687 21.7076 114.837 21.5847 115.013 21.5122C119.57 19.6242 120.961 18.2329 122.848 13.6765C122.921 13.5013 123.044 13.3515 123.201 13.2461C123.359 13.1407 123.545 13.0845 123.734 13.0845C123.924 13.0845 124.109 13.1407 124.267 13.2461C124.425 13.3515 124.548 13.5013 124.62 13.6765C126.508 18.2332 127.899 19.6245 132.456 21.5122C132.631 21.5848 132.781 21.7076 132.887 21.8653C132.992 22.023 133.048 22.2084 133.048 22.3981C133.048 22.5878 132.992 22.7732 132.886 22.9308C132.781 23.0885 132.631 23.2113 132.456 23.2838C127.899 25.1708 126.508 26.5624 124.62 31.1192C124.547 31.2943 124.424 31.4441 124.267 31.5494C124.109 31.6547 123.924 31.711 123.734 31.711Z" fill="#FF2E63"/>
<path d="M124.765 29.2022C122.878 24.6454 121.486 23.2542 116.929 21.3668C116.709 21.2754 116.531 21.1051 116.429 20.8892C115.962 21.1076 115.489 21.3152 115.013 21.5117C114.837 21.5842 114.687 21.707 114.582 21.8647C114.477 22.0224 114.42 22.2078 114.42 22.3975C114.42 22.5871 114.477 22.7725 114.582 22.9302C114.687 23.0879 114.837 23.2107 115.013 23.2832C119.57 25.1706 120.961 26.5619 122.848 31.1186C122.921 31.2937 123.044 31.4434 123.202 31.5486C123.359 31.6539 123.545 31.7101 123.734 31.7101C123.924 31.7101 124.109 31.6539 124.267 31.5486C124.425 31.4434 124.547 31.2937 124.62 31.1186C124.817 30.642 125.025 30.1698 125.243 29.7026C125.027 29.6011 124.857 29.4226 124.765 29.2022Z" fill="#E12957"/>
</svg>
